<svg width="36" height="36" viewBox="0 0 36 36" fill="none" xmlns="http://www.w3.org/2000/svg">
<mask id="path-1-inside-1_615_3995" fill="white">
<path d="M30.5704 2.55117C27.2011 0.906125 22.7367 9.15527e-05 17.9995 9.15527e-05C14.9032 9.15527e-05 11.8526 0.396976 9.17764 1.1481C8.39713 1.36606 7.63081 1.62189 6.88218 1.91441C6.79787 1.94752 6.72177 1.99498 6.65821 2.05409C6.59466 2.11319 6.54491 2.18277 6.51179 2.25886C6.44491 2.41254 6.44985 2.5834 6.52553 2.73386C6.60121 2.88432 6.74143 3.00205 6.91535 3.06115C7.00146 3.09041 7.09325 3.1044 7.18548 3.10232C7.27772 3.10024 7.36858 3.08212 7.45289 3.04901C8.15416 2.77515 8.87195 2.53561 9.60302 2.33148C12.1423 1.61864 15.0458 1.24179 17.9995 1.24179C22.5029 1.24179 26.726 2.09274 29.8907 3.63795C32.9238 5.11888 34.5941 7.04628 34.5941 9.06656C34.5941 11.0868 32.9238 13.0141 29.8907 14.495C26.7258 16.0402 22.5031 16.8912 17.9995 16.8912C13.496 16.8912 9.27325 16.0402 6.10856 14.495C3.07548 13.0141 1.40521 11.0867 1.40521 9.06656C1.40521 7.90805 1.94777 6.78654 3.01772 5.73335C3.43213 5.32532 3.92552 4.9307 4.48416 4.5603C4.62987 4.46043 4.72531 4.31395 4.74989 4.15246C4.77447 3.99096 4.72623 3.8274 4.61557 3.69706C4.5049 3.56672 4.34069 3.48003 4.15836 3.45571C3.97602 3.43139 3.79017 3.47137 3.64089 3.56704C3.00912 3.98589 2.44755 4.43576 1.97208 4.90388C0.681856 6.17368 0 7.61326 0 9.06656V26.9336C0 29.4257 1.92803 31.7395 5.42926 33.449C8.79869 35.0941 13.2629 36.0001 17.9999 36.0001C22.7369 36.0001 27.2013 35.0941 30.5707 33.449C34.0716 31.7395 36 29.4257 36 26.9336V9.06656C35.9993 6.57445 34.0712 4.2605 30.5704 2.55117ZM34.5941 26.9336C34.5941 28.9528 32.9238 30.8813 29.8907 32.3622C26.7258 33.9074 22.5031 34.7584 17.9995 34.7584C13.496 34.7584 9.27325 33.9074 6.10856 32.3622C3.07548 30.8813 1.40521 28.9539 1.40521 26.9336V12.6219C1.43519 12.6579 1.467 12.6936 1.49807 12.7295C1.52568 12.7618 1.55291 12.7941 1.58088 12.8253C1.61635 12.865 1.654 12.9044 1.69056 12.944C1.71671 12.9721 1.74193 13.0004 1.76862 13.0283C1.80994 13.0717 1.85326 13.1147 1.89658 13.1575C1.92017 13.1813 1.94283 13.206 1.96678 13.2288C2.01394 13.2753 2.06312 13.3213 2.11193 13.3674C2.13295 13.3872 2.15306 13.4073 2.17445 13.427C2.22819 13.4767 2.28413 13.526 2.33897 13.5752C2.35725 13.5914 2.3737 13.6076 2.39162 13.6226C2.44975 13.6733 2.50952 13.7234 2.56967 13.7734C2.58648 13.7875 2.60239 13.8017 2.61939 13.8156C2.68593 13.8705 2.75448 13.9248 2.82358 13.9791C2.83473 13.988 2.84552 13.9968 2.85685 14.0057C2.92997 14.0624 3.00437 14.1188 3.07987 14.1747L3.10418 14.1931C3.18401 14.2521 3.26542 14.3105 3.34841 14.3684C3.3528 14.3714 3.357 14.3747 3.36139 14.3776C3.44109 14.4332 3.52225 14.4885 3.60488 14.5433L3.62828 14.5595C3.71712 14.6185 3.80749 14.6768 3.89938 14.7346L3.90468 14.738C3.98731 14.79 4.07176 14.8413 4.15676 14.8925C4.16828 14.8995 4.17943 14.9066 4.19095 14.9134C4.28125 14.9675 4.37375 15.0208 4.46643 15.0739C4.4732 15.0777 4.47959 15.0817 4.48636 15.0856C4.56789 15.1318 4.65088 15.1775 4.73479 15.223C4.75307 15.2335 4.77226 15.244 4.79146 15.2553C4.87865 15.3023 4.96731 15.3487 5.0567 15.3949C5.07316 15.4035 5.08906 15.4122 5.1057 15.4207C5.21184 15.4751 5.31964 15.529 5.42907 15.5823C8.79851 17.2275 13.2627 18.1334 17.9997 18.1334C22.7367 18.1334 27.2011 17.2275 30.5706 15.5823C30.6802 15.529 30.788 15.4751 30.8939 15.4207C30.9106 15.4122 30.9265 15.4035 30.9429 15.3949C31.0323 15.3487 31.121 15.3023 31.2082 15.2553C31.2265 15.2448 31.2458 15.2343 31.2648 15.223C31.3484 15.1775 31.4317 15.1318 31.5133 15.0856C31.52 15.0817 31.5264 15.0777 31.5332 15.0739C31.6262 15.0208 31.7184 14.9675 31.8087 14.9134C31.8202 14.9066 31.8314 14.8995 31.8427 14.8925C31.9279 14.8413 32.0123 14.79 32.095 14.738L32.1003 14.7346C32.192 14.6767 32.2824 14.6184 32.3714 14.5595L32.3948 14.5433C32.4771 14.4886 32.5583 14.4334 32.6382 14.3776C32.6426 14.3747 32.6468 14.3714 32.6512 14.3684C32.7341 14.3104 32.8155 14.252 32.8955 14.1931L32.9198 14.1747C32.9953 14.1188 33.07 14.0624 33.1428 14.0057C33.1541 13.9968 33.1649 13.988 33.1761 13.9791C33.2452 13.9248 33.3135 13.8705 33.3802 13.8156C33.3972 13.8017 33.4132 13.7875 33.43 13.7734C33.4901 13.7234 33.5499 13.6733 33.608 13.6226C33.6263 13.6064 33.6429 13.5903 33.6607 13.5752C33.7164 13.5268 33.772 13.4767 33.8252 13.427C33.8466 13.4073 33.8667 13.3872 33.8877 13.3674C33.9365 13.3213 33.9857 13.2753 34.0329 13.2288C34.0568 13.2052 34.0795 13.1813 34.1031 13.1575C34.1458 13.1146 34.1892 13.0716 34.231 13.0283C34.2577 13.0004 34.2829 12.9721 34.3091 12.944C34.3456 12.9044 34.3822 12.865 34.4188 12.8253C34.4471 12.7929 34.4736 12.7606 34.5016 12.7295C34.5326 12.6936 34.5644 12.6579 34.5944 12.6219L34.5941 26.9336Z"/>
<path d="M9.20232 13.7394C11.5636 14.8924 14.6879 15.5274 17.9995 15.5274C21.3112 15.5274 24.4357 14.8924 26.797 13.7394C29.29 12.5222 30.6629 10.8626 30.6629 9.06656C30.6629 7.27049 29.29 5.61091 26.797 4.39376C24.4357 3.24059 21.3114 2.6056 17.9995 2.6056C14.6877 2.6056 11.5636 3.24059 9.20232 4.39376C6.70888 5.61091 5.33639 7.27049 5.33639 9.06656C5.33639 10.8626 6.70888 12.5222 9.20232 13.7394ZM9.88198 5.48039C12.0391 4.42736 14.9217 3.8473 17.9995 3.8473C21.0774 3.8473 23.9606 4.42736 26.1173 5.48039C28.1424 6.46913 29.2577 7.74281 29.2577 9.0664C29.2577 10.39 28.1426 11.6637 26.1173 12.6524C23.9602 13.7056 21.0776 14.2855 17.9995 14.2855C14.9215 14.2855 12.0387 13.7056 9.88198 12.6524C7.85689 11.6637 6.7416 10.39 6.7416 9.0664C6.7416 7.74281 7.85689 6.46913 9.88198 5.48039Z"/>
<path d="M17.9995 13.0543C22.2603 13.0543 25.5979 11.3027 25.5979 9.06656C25.5979 6.83047 22.2603 5.07866 17.9995 5.07866C13.7388 5.07866 10.4015 6.83031 10.4015 9.06656C10.4015 11.3028 13.7389 13.0543 17.9995 13.0543ZM17.9995 6.32036C21.7042 6.32036 24.1927 7.74038 24.1927 9.0664C24.1927 10.3924 21.7042 11.8124 17.9995 11.8124C14.2949 11.8124 11.8065 10.3926 11.8065 9.0664C11.8065 7.74022 14.2952 6.32036 17.9995 6.32036Z"/>
</mask>
<path d="M30.5704 2.55117C27.2011 0.906125 22.7367 9.15527e-05 17.9995 9.15527e-05C14.9032 9.15527e-05 11.8526 0.396976 9.17764 1.1481C8.39713 1.36606 7.63081 1.62189 6.88218 1.91441C6.79787 1.94752 6.72177 1.99498 6.65821 2.05409C6.59466 2.11319 6.54491 2.18277 6.51179 2.25886C6.44491 2.41254 6.44985 2.5834 6.52553 2.73386C6.60121 2.88432 6.74143 3.00205 6.91535 3.06115C7.00146 3.09041 7.09325 3.1044 7.18548 3.10232C7.27772 3.10024 7.36858 3.08212 7.45289 3.04901C8.15416 2.77515 8.87195 2.53561 9.60302 2.33148C12.1423 1.61864 15.0458 1.24179 17.9995 1.24179C22.5029 1.24179 26.726 2.09274 29.8907 3.63795C32.9238 5.11888 34.5941 7.04628 34.5941 9.06656C34.5941 11.0868 32.9238 13.0141 29.8907 14.495C26.7258 16.0402 22.5031 16.8912 17.9995 16.8912C13.496 16.8912 9.27325 16.0402 6.10856 14.495C3.07548 13.0141 1.40521 11.0867 1.40521 9.06656C1.40521 7.90805 1.94777 6.78654 3.01772 5.73335C3.43213 5.32532 3.92552 4.9307 4.48416 4.5603C4.62987 4.46043 4.72531 4.31395 4.74989 4.15246C4.77447 3.99096 4.72623 3.8274 4.61557 3.69706C4.5049 3.56672 4.34069 3.48003 4.15836 3.45571C3.97602 3.43139 3.79017 3.47137 3.64089 3.56704C3.00912 3.98589 2.44755 4.43576 1.97208 4.90388C0.681856 6.17368 0 7.61326 0 9.06656V26.9336C0 29.4257 1.92803 31.7395 5.42926 33.449C8.79869 35.0941 13.2629 36.0001 17.9999 36.0001C22.7369 36.0001 27.2013 35.0941 30.5707 33.449C34.0716 31.7395 36 29.4257 36 26.9336V9.06656C35.9993 6.57445 34.0712 4.2605 30.5704 2.55117ZM34.5941 26.9336C34.5941 28.9528 32.9238 30.8813 29.8907 32.3622C26.7258 33.9074 22.5031 34.7584 17.9995 34.7584C13.496 34.7584 9.27325 33.9074 6.10856 32.3622C3.07548 30.8813 1.40521 28.9539 1.40521 26.9336V12.6219C1.43519 12.6579 1.467 12.6936 1.49807 12.7295C1.52568 12.7618 1.55291 12.7941 1.58088 12.8253C1.61635 12.865 1.654 12.9044 1.69056 12.944C1.71671 12.9721 1.74193 13.0004 1.76862 13.0283C1.80994 13.0717 1.85326 13.1147 1.89658 13.1575C1.92017 13.1813 1.94283 13.206 1.96678 13.2288C2.01394 13.2753 2.06312 13.3213 2.11193 13.3674C2.13295 13.3872 2.15306 13.4073 2.17445 13.427C2.22819 13.4767 2.28413 13.526 2.33897 13.5752C2.35725 13.5914 2.3737 13.6076 2.39162 13.6226C2.44975 13.6733 2.50952 13.7234 2.56967 13.7734C2.58648 13.7875 2.60239 13.8017 2.61939 13.8156C2.68593 13.8705 2.75448 13.9248 2.82358 13.9791C2.83473 13.988 2.84552 13.9968 2.85685 14.0057C2.92997 14.0624 3.00437 14.1188 3.07987 14.1747L3.10418 14.1931C3.18401 14.2521 3.26542 14.3105 3.34841 14.3684C3.3528 14.3714 3.357 14.3747 3.36139 14.3776C3.44109 14.4332 3.52225 14.4885 3.60488 14.5433L3.62828 14.5595C3.71712 14.6185 3.80749 14.6768 3.89938 14.7346L3.90468 14.738C3.98731 14.79 4.07176 14.8413 4.15676 14.8925C4.16828 14.8995 4.17943 14.9066 4.19095 14.9134C4.28125 14.9675 4.37375 15.0208 4.46643 15.0739C4.4732 15.0777 4.47959 15.0817 4.48636 15.0856C4.56789 15.1318 4.65088 15.1775 4.73479 15.223C4.75307 15.2335 4.77226 15.244 4.79146 15.2553C4.87865 15.3023 4.96731 15.3487 5.0567 15.3949C5.07316 15.4035 5.08906 15.4122 5.1057 15.4207C5.21184 15.4751 5.31964 15.529 5.42907 15.5823C8.79851 17.2275 13.2627 18.1334 17.9997 18.1334C22.7367 18.1334 27.2011 17.2275 30.5706 15.5823C30.6802 15.529 30.788 15.4751 30.8939 15.4207C30.9106 15.4122 30.9265 15.4035 30.9429 15.3949C31.0323 15.3487 31.121 15.3023 31.2082 15.2553C31.2265 15.2448 31.2458 15.2343 31.2648 15.223C31.3484 15.1775 31.4317 15.1318 31.5133 15.0856C31.52 15.0817 31.5264 15.0777 31.5332 15.0739C31.6262 15.0208 31.7184 14.9675 31.8087 14.9134C31.8202 14.9066 31.8314 14.8995 31.8427 14.8925C31.9279 14.8413 32.0123 14.79 32.095 14.738L32.1003 14.7346C32.192 14.6767 32.2824 14.6184 32.3714 14.5595L32.3948 14.5433C32.4771 14.4886 32.5583 14.4334 32.6382 14.3776C32.6426 14.3747 32.6468 14.3714 32.6512 14.3684C32.7341 14.3104 32.8155 14.252 32.8955 14.1931L32.9198 14.1747C32.9953 14.1188 33.07 14.0624 33.1428 14.0057C33.1541 13.9968 33.1649 13.988 33.1761 13.9791C33.2452 13.9248 33.3135 13.8705 33.3802 13.8156C33.3972 13.8017 33.4132 13.7875 33.43 13.7734C33.4901 13.7234 33.5499 13.6733 33.608 13.6226C33.6263 13.6064 33.6429 13.5903 33.6607 13.5752C33.7164 13.5268 33.772 13.4767 33.8252 13.427C33.8466 13.4073 33.8667 13.3872 33.8877 13.3674C33.9365 13.3213 33.9857 13.2753 34.0329 13.2288C34.0568 13.2052 34.0795 13.1813 34.1031 13.1575C34.1458 13.1146 34.1892 13.0716 34.231 13.0283C34.2577 13.0004 34.2829 12.9721 34.3091 12.944C34.3456 12.9044 34.3822 12.865 34.4188 12.8253C34.4471 12.7929 34.4736 12.7606 34.5016 12.7295C34.5326 12.6936 34.5644 12.6579 34.5944 12.6219L34.5941 26.9336Z" fill="#FF8D40"/>
<path d="M9.20232 13.7394C11.5636 14.8924 14.6879 15.5274 17.9995 15.5274C21.3112 15.5274 24.4357 14.8924 26.797 13.7394C29.29 12.5222 30.6629 10.8626 30.6629 9.06656C30.6629 7.27049 29.29 5.61091 26.797 4.39376C24.4357 3.24059 21.3114 2.6056 17.9995 2.6056C14.6877 2.6056 11.5636 3.24059 9.20232 4.39376C6.70888 5.61091 5.33639 7.27049 5.33639 9.06656C5.33639 10.8626 6.70888 12.5222 9.20232 13.7394ZM9.88198 5.48039C12.0391 4.42736 14.9217 3.8473 17.9995 3.8473C21.0774 3.8473 23.9606 4.42736 26.1173 5.48039C28.1424 6.46913 29.2577 7.74281 29.2577 9.0664C29.2577 10.39 28.1426 11.6637 26.1173 12.6524C23.9602 13.7056 21.0776 14.2855 17.9995 14.2855C14.9215 14.2855 12.0387 13.7056 9.88198 12.6524C7.85689 11.6637 6.7416 10.39 6.7416 9.0664C6.7416 7.74281 7.85689 6.46913 9.88198 5.48039Z" fill="#FF8D40"/>
<path d="M17.9995 13.0543C22.2603 13.0543 25.5979 11.3027 25.5979 9.06656C25.5979 6.83047 22.2603 5.07866 17.9995 5.07866C13.7388 5.07866 10.4015 6.83031 10.4015 9.06656C10.4015 11.3028 13.7389 13.0543 17.9995 13.0543ZM17.9995 6.32036C21.7042 6.32036 24.1927 7.74038 24.1927 9.0664C24.1927 10.3924 21.7042 11.8124 17.9995 11.8124C14.2949 11.8124 11.8065 10.3926 11.8065 9.0664C11.8065 7.74022 14.2952 6.32036 17.9995 6.32036Z" fill="#FF8D40"/>
<path d="M30.5704 2.55117C27.2011 0.906125 22.7367 9.15527e-05 17.9995 9.15527e-05C14.9032 9.15527e-05 11.8526 0.396976 9.17764 1.1481C8.39713 1.36606 7.63081 1.62189 6.88218 1.91441C6.79787 1.94752 6.72177 1.99498 6.65821 2.05409C6.59466 2.11319 6.54491 2.18277 6.51179 2.25886C6.44491 2.41254 6.44985 2.5834 6.52553 2.73386C6.60121 2.88432 6.74143 3.00205 6.91535 3.06115C7.00146 3.09041 7.09325 3.1044 7.18548 3.10232C7.27772 3.10024 7.36858 3.08212 7.45289 3.04901C8.15416 2.77515 8.87195 2.53561 9.60302 2.33148C12.1423 1.61864 15.0458 1.24179 17.9995 1.24179C22.5029 1.24179 26.726 2.09274 29.8907 3.63795C32.9238 5.11888 34.5941 7.04628 34.5941 9.06656C34.5941 11.0868 32.9238 13.0141 29.8907 14.495C26.7258 16.0402 22.5031 16.8912 17.9995 16.8912C13.496 16.8912 9.27325 16.0402 6.10856 14.495C3.07548 13.0141 1.40521 11.0867 1.40521 9.06656C1.40521 7.90805 1.94777 6.78654 3.01772 5.73335C3.43213 5.32532 3.92552 4.9307 4.48416 4.5603C4.62987 4.46043 4.72531 4.31395 4.74989 4.15246C4.77447 3.99096 4.72623 3.8274 4.61557 3.69706C4.5049 3.56672 4.34069 3.48003 4.15836 3.45571C3.97602 3.43139 3.79017 3.47137 3.64089 3.56704C3.00912 3.98589 2.44755 4.43576 1.97208 4.90388C0.681856 6.17368 0 7.61326 0 9.06656V26.9336C0 29.4257 1.92803 31.7395 5.42926 33.449C8.79869 35.0941 13.2629 36.0001 17.9999 36.0001C22.7369 36.0001 27.2013 35.0941 30.5707 33.449C34.0716 31.7395 36 29.4257 36 26.9336V9.06656C35.9993 6.57445 34.0712 4.2605 30.5704 2.55117ZM34.5941 26.9336C34.5941 28.9528 32.9238 30.8813 29.8907 32.3622C26.7258 33.9074 22.5031 34.7584 17.9995 34.7584C13.496 34.7584 9.27325 33.9074 6.10856 32.3622C3.07548 30.8813 1.40521 28.9539 1.40521 26.9336V12.6219C1.43519 12.6579 1.467 12.6936 1.49807 12.7295C1.52568 12.7618 1.55291 12.7941 1.58088 12.8253C1.61635 12.865 1.654 12.9044 1.69056 12.944C1.71671 12.9721 1.74193 13.0004 1.76862 13.0283C1.80994 13.0717 1.85326 13.1147 1.89658 13.1575C1.92017 13.1813 1.94283 13.206 1.96678 13.2288C2.01394 13.2753 2.06312 13.3213 2.11193 13.3674C2.13295 13.3872 2.15306 13.4073 2.17445 13.427C2.22819 13.4767 2.28413 13.526 2.33897 13.5752C2.35725 13.5914 2.3737 13.6076 2.39162 13.6226C2.44975 13.6733 2.50952 13.7234 2.56967 13.7734C2.58648 13.7875 2.60239 13.8017 2.61939 13.8156C2.68593 13.8705 2.75448 13.9248 2.82358 13.9791C2.83473 13.988 2.84552 13.9968 2.85685 14.0057C2.92997 14.0624 3.00437 14.1188 3.07987 14.1747L3.10418 14.1931C3.18401 14.2521 3.26542 14.3105 3.34841 14.3684C3.3528 14.3714 3.357 14.3747 3.36139 14.3776C3.44109 14.4332 3.52225 14.4885 3.60488 14.5433L3.62828 14.5595C3.71712 14.6185 3.80749 14.6768 3.89938 14.7346L3.90468 14.738C3.98731 14.79 4.07176 14.8413 4.15676 14.8925C4.16828 14.8995 4.17943 14.9066 4.19095 14.9134C4.28125 14.9675 4.37375 15.0208 4.46643 15.0739C4.4732 15.0777 4.47959 15.0817 4.48636 15.0856C4.56789 15.1318 4.65088 15.1775 4.73479 15.223C4.75307 15.2335 4.77226 15.244 4.79146 15.2553C4.87865 15.3023 4.96731 15.3487 5.0567 15.3949C5.07316 15.4035 5.08906 15.4122 5.1057 15.4207C5.21184 15.4751 5.31964 15.529 5.42907 15.5823C8.79851 17.2275 13.2627 18.1334 17.9997 18.1334C22.7367 18.1334 27.2011 17.2275 30.5706 15.5823C30.6802 15.529 30.788 15.4751 30.8939 15.4207C30.9106 15.4122 30.9265 15.4035 30.9429 15.3949C31.0323 15.3487 31.121 15.3023 31.2082 15.2553C31.2265 15.2448 31.2458 15.2343 31.2648 15.223C31.3484 15.1775 31.4317 15.1318 31.5133 15.0856C31.52 15.0817 31.5264 15.0777 31.5332 15.0739C31.6262 15.0208 31.7184 14.9675 31.8087 14.9134C31.8202 14.9066 31.8314 14.8995 31.8427 14.8925C31.9279 14.8413 32.0123 14.79 32.095 14.738L32.1003 14.7346C32.192 14.6767 32.2824 14.6184 32.3714 14.5595L32.3948 14.5433C32.4771 14.4886 32.5583 14.4334 32.6382 14.3776C32.6426 14.3747 32.6468 14.3714 32.6512 14.3684C32.7341 14.3104 32.8155 14.252 32.8955 14.1931L32.9198 14.1747C32.9953 14.1188 33.07 14.0624 33.1428 14.0057C33.1541 13.9968 33.1649 13.988 33.1761 13.9791C33.2452 13.9248 33.3135 13.8705 33.3802 13.8156C33.3972 13.8017 33.4132 13.7875 33.43 13.7734C33.4901 13.7234 33.5499 13.6733 33.608 13.6226C33.6263 13.6064 33.6429 13.5903 33.6607 13.5752C33.7164 13.5268 33.772 13.4767 33.8252 13.427C33.8466 13.4073 33.8667 13.3872 33.8877 13.3674C33.9365 13.3213 33.9857 13.2753 34.0329 13.2288C34.0568 13.2052 34.0795 13.1813 34.1031 13.1575C34.1458 13.1146 34.1892 13.0716 34.231 13.0283C34.2577 13.0004 34.2829 12.9721 34.3091 12.944C34.3456 12.9044 34.3822 12.865 34.4188 12.8253C34.4471 12.7929 34.4736 12.7606 34.5016 12.7295C34.5326 12.6936 34.5644 12.6579 34.5944 12.6219L34.5941 26.9336Z" stroke="#FF8D40" mask="url(#path-1-inside-1_615_3995)"/>
<path d="M9.20232 13.7394C11.5636 14.8924 14.6879 15.5274 17.9995 15.5274C21.3112 15.5274 24.4357 14.8924 26.797 13.7394C29.29 12.5222 30.6629 10.8626 30.6629 9.06656C30.6629 7.27049 29.29 5.61091 26.797 4.39376C24.4357 3.24059 21.3114 2.6056 17.9995 2.6056C14.6877 2.6056 11.5636 3.24059 9.20232 4.39376C6.70888 5.61091 5.33639 7.27049 5.33639 9.06656C5.33639 10.8626 6.70888 12.5222 9.20232 13.7394ZM9.88198 5.48039C12.0391 4.42736 14.9217 3.8473 17.9995 3.8473C21.0774 3.8473 23.9606 4.42736 26.1173 5.48039C28.1424 6.46913 29.2577 7.74281 29.2577 9.0664C29.2577 10.39 28.1426 11.6637 26.1173 12.6524C23.9602 13.7056 21.0776 14.2855 17.9995 14.2855C14.9215 14.2855 12.0387 13.7056 9.88198 12.6524C7.85689 11.6637 6.7416 10.39 6.7416 9.0664C6.7416 7.74281 7.85689 6.46913 9.88198 5.48039Z" stroke="#FF8D40" mask="url(#path-1-inside-1_615_3995)"/>
<path d="M17.9995 13.0543C22.2603 13.0543 25.5979 11.3027 25.5979 9.06656C25.5979 6.83047 22.2603 5.07866 17.9995 5.07866C13.7388 5.07866 10.4015 6.83031 10.4015 9.06656C10.4015 11.3028 13.7389 13.0543 17.9995 13.0543ZM17.9995 6.32036C21.7042 6.32036 24.1927 7.74038 24.1927 9.0664C24.1927 10.3924 21.7042 11.8124 17.9995 11.8124C14.2949 11.8124 11.8065 10.3926 11.8065 9.0664C11.8065 7.74022 14.2952 6.32036 17.9995 6.32036Z" stroke="#FF8D40" mask="url(#path-1-inside-1_615_3995)"/>
</svg>
