<svg width="250" height="300" viewBox="0 0 250 300" fill="none" xmlns="http://www.w3.org/2000/svg">
<rect width="250" height="300" fill="white"/>
<g clip-path="url(#clip0_355_40954)">
<path d="M129.15 201.775C169.895 199.482 201.067 164.594 198.775 123.848C196.483 83.1033 161.594 51.931 120.849 54.2233C80.1038 56.5156 48.9315 91.4043 51.2238 132.15C53.5161 172.895 88.4048 204.067 129.15 201.775Z" fill="#FFDBC7"/>
<path fill-rule="evenodd" clip-rule="evenodd" d="M125 72.356C136.008 72.3548 146.768 75.6177 155.92 81.7322C165.073 87.8466 172.206 96.5379 176.419 106.707C180.632 116.876 181.734 128.066 179.587 138.861C177.44 149.657 172.14 159.573 164.357 167.356C156.574 175.14 146.657 180.44 135.862 182.587C125.066 184.734 113.876 183.631 103.707 179.419C93.5384 175.206 84.8471 168.072 78.7327 158.92C72.6182 149.767 69.3553 139.007 69.3564 128C69.3564 113.242 75.2189 99.089 85.6542 88.6537C96.0895 78.2184 110.243 72.356 125 72.356Z" fill="#191C1D"/>
<path d="M69.4043 128.003C69.4043 158.721 94.3063 183.65 125.025 183.65C155.743 183.65 180.645 158.721 180.645 128.003C180.645 97.2848 155.743 72.356 125.025 72.356C94.3063 72.356 69.4043 97.2848 69.4043 128.003Z" fill="#FF8D40"/>
<path fill-rule="evenodd" clip-rule="evenodd" d="M116.112 149.255C125.042 149.255 129.883 148.386 136.354 143.355C136.986 142.861 137.545 142.444 138.176 141.95C138.807 141.456 139.308 141.009 139.962 140.509C140.254 140.289 140.558 140.027 140.856 139.788C141.153 139.55 141.451 139.294 141.743 139.056C146.893 134.591 147.428 135.609 147.428 128.56L147.315 118.498C149.268 117.378 149.197 117.367 149.637 114.925C149.941 113.229 150.233 111.544 150.495 109.811C151.119 106.206 151.479 102.561 151.572 98.9039C151.572 94.0515 150.042 93.4442 146.744 91.7176C144.002 90.3983 141.185 89.2412 138.307 88.2525C130.817 85.4602 125.018 84.4659 116.385 84.4659C110.717 84.4659 101.555 85.3828 96.2498 87.4428C95.3343 87.7778 94.4431 88.1757 93.5825 88.6336C92.9454 88.9849 91.5225 89.7827 91.3141 90.2173C91.1057 90.6519 90.5104 106.138 90.7545 108.799C90.9212 110.585 91.5344 109.305 90.1591 111.454C89.0915 113.119 88.3332 114.962 87.9205 116.896C87.3251 119.802 87.0988 128.607 87.9205 131.298C88.4325 132.971 91.2665 136.99 92.5704 138.205C93.5154 139.166 94.509 140.078 95.5473 140.938C95.9402 141.235 96.2677 141.533 96.6487 141.825C101.412 145.337 110.342 149.261 116.118 149.261" fill="#191C1D"/>
<path fill-rule="evenodd" clip-rule="evenodd" d="M93.2608 90.9199C95.678 92.706 101.376 94.9327 104.454 95.6233C106.743 96.1227 109.065 96.455 111.402 96.6176C112.986 96.7307 117.749 96.7426 118.719 97.213C118.874 98.1061 118.463 98.1418 117.731 98.237C111.968 99.0349 103.775 97.7727 98.512 95.5995C96.4699 94.766 93.9098 93.2835 92.9929 92.9203C92.8262 97.3261 92.3201 104.661 92.6356 108.924C95.4816 110.216 96.5413 111.389 100.62 112.871C103.46 113.901 106.883 114.693 109.943 115.473C117.903 117.492 130.186 117.378 138.873 117.378C141.108 117.431 143.344 117.359 145.571 117.164C147.827 116.837 147.541 116.158 148.119 112.752C148.768 108.918 149.607 104.125 149.667 100.172C146.529 100.69 144.475 101.131 141.189 100.625C140.468 100.511 139.23 100.386 138.968 99.7434C139.266 99.3861 139.563 99.3861 140.206 99.3564C141.709 99.3142 143.206 99.1549 144.684 98.8801C145.761 98.6657 149.024 97.731 149.631 97.2547C149.611 96.5764 149.401 95.9174 149.025 95.3523C148.65 94.7872 148.123 94.3386 147.506 94.0575C146.353 93.389 145.16 92.7925 143.933 92.2714C141.409 91.1878 138.754 90.2114 136.11 89.2945C125.631 85.621 114.677 85.4662 103.686 87.288C101.782 87.5941 99.9037 88.0399 98.0655 88.6217C97.101 88.9313 94.2432 89.9672 93.4454 90.7115C93.424 90.7298 93.4041 90.7497 93.3858 90.771L93.2608 90.9199Z" fill="white"/>
<path fill-rule="evenodd" clip-rule="evenodd" d="M89.2772 123.094C89.2307 125.446 89.3282 127.798 89.569 130.137C90.0036 133.418 95.3441 138.586 97.6959 140.39C100.101 142.172 102.724 143.639 105.501 144.754C106.817 145.296 113.598 147.933 114.944 147.272C115.146 146.314 114.122 145.701 114.944 144.409C115.926 142.825 119.249 142.73 119.909 144.409C120.415 145.677 119.475 146.076 119.481 147.195C121.315 148.005 127.316 146.385 129.191 145.736C131.525 144.927 134.633 142.539 136.336 141.188L142.736 135.919C143.332 135.478 143.719 135.103 144.278 134.609C144.582 134.393 144.841 134.12 145.039 133.804C145.237 133.488 145.371 133.137 145.433 132.769C145.761 131.042 145.534 121.32 145.499 118.974C134.782 119.248 119.755 119.516 110.008 117.301C104.751 116.11 99.2617 114.699 94.6297 112.056C93.9908 111.645 93.3151 111.294 92.6113 111.008C92.3989 111.405 92.1497 111.782 91.8671 112.133C91.091 113.384 90.473 114.726 90.0274 116.128C89.4778 118.404 89.2236 120.741 89.2713 123.082" fill="white"/>
<path fill-rule="evenodd" clip-rule="evenodd" d="M100.101 157.156C101.131 157.376 101.292 157.054 102.09 156.656C102.685 156.358 103.233 156.06 103.876 155.697L109.348 152.97C110.288 152.494 110.324 152.446 111.372 152.821C112.883 153.293 114.439 153.602 116.016 153.744C119.092 154.024 122.185 153.438 124.946 152.053C127.614 150.779 130.972 150.196 134.05 150.023C133.96 154.054 134.008 156.066 134.842 159.763C135.479 162.58 136.128 166.027 139.277 165.717C140.724 165.318 141.135 164.479 141.986 163.621C142.838 162.764 143.611 162.097 144.433 161.347L148.005 157.864C148.26 157.681 148.464 157.437 148.598 157.154C148.733 156.87 148.793 156.558 148.773 156.245C150.059 156.191 151.47 156.197 152.673 155.578C152.84 155.495 153.013 155.37 153.155 155.304L153.405 155.215C153.679 155.167 153.495 155.167 153.656 155.215C154.138 157.483 153.656 161.049 153.441 163.419C153.334 164.61 152.673 170.945 152.846 171.528C153.822 171.701 153.614 170.724 153.906 168.599C154.054 167.527 154.114 165.753 154.453 164.896L154.858 169.79C154.906 170.522 154.942 170.73 155.638 170.564C156.001 168.777 155.043 160.037 155.376 157.638C155.555 156.304 155.751 154.911 155.906 153.571C157.24 153.44 161.229 152.934 159.901 150.779C160.645 150.327 161.163 150.374 161.651 149.636C161.832 149.389 161.928 149.091 161.928 148.785C161.928 148.479 161.832 148.181 161.651 147.933L161.247 147.534C163.932 146.498 163.932 143.367 161.247 142.914C161.413 142.48 161.205 142.825 161.532 142.438C162.217 141.616 162.961 140.61 161.788 139.229C160.431 137.627 158.704 138.723 157.895 138.967C158.192 135.651 158.776 132.269 159.21 128.947C159.389 127.559 160.61 119.611 160.479 118.95C160.115 118.557 159.562 118.623 158.984 118.557C158.294 118.48 157.734 118.283 157.436 118.641C157.138 118.998 155.62 138.354 155.418 140.67L154.662 140.521C154.424 139.532 154.066 118.45 153.757 117.444C153.036 117.283 151.185 117.289 150.655 117.634L152.358 139.217C151.398 138.702 150.337 138.405 149.25 138.348C148.093 138.325 146.948 138.594 145.922 139.128C144.195 140.164 144.731 141.723 143.617 144.897C142.766 145.165 141.426 145.183 140.396 145.403C138.568 145.805 136.882 146.691 135.514 147.969C134.853 148.564 135.014 148.171 134.115 148.207C131.433 148.443 128.773 148.891 126.161 149.547C124.732 149.975 123.434 150.904 120.803 151.631C118.379 152.291 116.754 152.16 114.301 151.696C110.175 150.916 111.277 150.112 108.579 151.333C106.793 152.149 105.281 152.893 103.596 153.804C100.619 155.417 99.0177 155.637 100.083 157.132" fill="#191C1D"/>
<path fill-rule="evenodd" clip-rule="evenodd" d="M100.102 157.156C101.447 158.585 101.465 158.817 103.388 160.168C104.652 161.061 105.993 161.84 107.395 162.496C110.439 163.936 113.634 165.03 116.921 165.759C123.024 167.164 133.77 168.527 139.266 165.723C136.116 166.027 135.467 162.58 134.83 159.769C133.997 156.072 133.949 154.06 134.038 150.029C130.96 150.202 127.602 150.785 124.935 152.059C122.174 153.444 119.081 154.03 116.004 153.75C114.428 153.608 112.871 153.299 111.36 152.827C110.312 152.452 110.277 152.5 109.336 152.976L103.865 155.703C103.233 156.042 102.674 156.364 102.078 156.662C101.251 157.06 101.12 157.382 100.09 157.162" fill="white"/>
<path fill-rule="evenodd" clip-rule="evenodd" d="M146.851 156.388C146.458 155.846 145.41 155.06 146.494 154.465C147.351 153.988 149.584 155.024 151.781 154.048C152.882 153.56 152.608 152.917 153.501 152.583C153.388 150.511 152.906 147.927 153.079 145.897C151.977 145.73 151.888 145.498 151.013 145.165C151.459 146.528 151.686 146.665 151.334 148.38C151.285 148.862 151.114 149.324 150.837 149.722C150.56 150.12 150.186 150.441 149.751 150.654C148.03 151.547 144.392 152.5 144.345 150.291C144.345 149.053 145.583 148.939 146.792 148.945C148.536 148.945 148.732 148.814 149.518 147.808C150.947 145.98 147.571 144.057 148.03 142.45C148.988 141.944 149.161 142.372 150.542 143.194C151.025 143.48 152.549 144.432 153.067 144.385C154.121 139.55 148.101 139.026 146.565 140.491C146.023 140.997 145.863 142.682 145.631 143.647C144.755 147.296 144.029 146.028 140.689 146.79C138.98 147.165 138.045 147.892 136.795 148.85C136.271 149.249 136.015 149.184 135.979 150.148C135.792 152.643 135.918 155.151 136.355 157.614C137.986 166.182 138.903 164.068 140.564 162.437L146.851 156.388Z" fill="white"/>
<path fill-rule="evenodd" clip-rule="evenodd" d="M121.076 113.282C124.393 113.282 127.173 110.96 127.149 107.817C127.125 104.673 124.351 102.393 121.076 102.393C117.98 102.393 115.164 104.739 115.123 107.817C115.081 110.895 117.909 113.282 121.076 113.282Z" fill="#60A04D"/>
<path fill-rule="evenodd" clip-rule="evenodd" d="M101.173 138.33C101.257 137.05 98.75 134.686 99.9825 133.424C101.215 132.162 104.15 133.358 105.412 133.912C107.693 134.924 107.663 135.639 110.806 134.811C111.598 134.603 112.926 134.305 112.831 133.442C112.473 130.072 101.126 129.899 99.0239 130.608C95.3683 131.84 97.3866 134.99 99.268 136.704C99.8588 137.296 100.496 137.84 101.173 138.33Z" fill="#191C1D"/>
<path fill-rule="evenodd" clip-rule="evenodd" d="M127.167 136.139C129.079 136.139 130.674 134.103 134.246 134.103C135.83 134.103 136.556 135.079 135.836 136.484C135.27 137.45 134.78 138.46 134.371 139.503C134.866 139.378 136.312 138.02 136.753 137.627C137.526 136.928 138.163 136.092 138.634 135.162C139.974 132.185 136.015 131.388 133.389 131.388C131.008 131.388 126.703 131.679 124.75 132.465C123.988 132.769 122.154 134.162 123.393 135.073C124.557 135.712 125.853 136.074 127.179 136.133" fill="#191C1D"/>
<path fill-rule="evenodd" clip-rule="evenodd" d="M94.2845 118.373C94.5226 118.855 95.3442 119.075 95.9218 119.307C97.3388 119.903 101.203 118.563 105.007 120.564C102.03 120.236 102.334 120.171 99.4702 120.212C98.4997 120.212 95.8086 120.212 95.505 120.98C95.6002 121.415 95.6955 121.409 96.1004 121.576C97.8389 122.338 98.9046 122.034 101.06 122.034C102.708 122.053 104.351 122.212 105.972 122.511C106.954 122.683 109.842 123.618 110.437 123.356C110.437 122.695 106.579 119.784 106.055 119.45C102.959 117.623 99.7084 117.289 96.1123 117.76C95.4097 117.855 94.5881 117.879 94.2666 118.355" fill="#191C1D"/>
<path fill-rule="evenodd" clip-rule="evenodd" d="M127.048 125.333C127.453 125.666 129.275 125.482 130.269 125.482C134.151 125.482 136.086 126.226 139.277 127.006C139.986 127.178 141.891 127.184 142.254 126.523C141.962 125.928 141.182 125.738 140.521 125.511C138.156 124.562 135.644 124.03 133.097 123.94C134.681 123.219 138.574 123.94 139.932 124.362C140.575 124.619 141.25 124.786 141.938 124.856C142.623 124.827 143.677 124.731 144.082 124.338C143.969 123.743 143.605 123.743 142.569 123.332C137.384 121.207 133.71 121.659 128.935 124.13C128.34 124.446 127.238 124.815 127.042 125.321" fill="#191C1D"/>
<path fill-rule="evenodd" clip-rule="evenodd" d="M108.86 137.336C107.318 140.312 114.463 142.206 117.231 142.206C121.25 142.206 121.809 140.866 125.054 139.741C126.507 139.241 127.085 139.568 127.263 138.735C126.019 137.336 121.178 140.235 117.231 140.235C115.123 140.235 113.962 140.17 112.164 139.086C111.474 138.669 109.563 137.127 108.86 137.336Z" fill="#191C1D"/>
<path fill-rule="evenodd" clip-rule="evenodd" d="M124.548 127.411C125.286 128.566 126.334 130.084 123.357 130.81C120.916 131.406 111.295 131.507 110.747 128.732C110.545 127.702 111.444 127.256 111.503 126.625C107.663 128.845 110.003 132.43 117.898 132.733C119.868 132.805 126.709 132.358 126.542 129.566C126.489 128.667 125.352 127.589 124.578 127.411" fill="#191C1D"/>
<path fill-rule="evenodd" clip-rule="evenodd" d="M153.87 140.527L153.239 121.975L151.81 122.016C151.679 122.898 152.066 125.642 152.138 126.696C152.239 128.292 152.417 129.923 152.525 131.537C152.632 133.15 152.781 134.662 152.912 136.252C152.971 137.02 153.066 137.853 153.114 138.633C153.191 139.824 153.114 140.003 153.87 140.539" fill="#60A04D"/>
<path fill-rule="evenodd" clip-rule="evenodd" d="M156.252 140.354C157.341 139.842 157.252 137.973 157.443 136.496C157.74 134.275 159.282 123.743 159.151 123.023L157.8 122.904L156.252 140.354Z" fill="#60A04D"/>
<path fill-rule="evenodd" clip-rule="evenodd" d="M156.442 143.593L156.853 143.7C157.484 143.7 159.234 142.914 159.728 142.617C162.705 140.759 160.735 137.996 157.781 140.539C157.013 141.205 156.15 141.973 156.442 143.593Z" fill="white"/>
<path fill-rule="evenodd" clip-rule="evenodd" d="M156.168 146.629C157.585 147.874 163.515 146.594 161.884 144.397C160.544 142.611 156.239 145.969 156.168 146.629Z" fill="white"/>
<path fill-rule="evenodd" clip-rule="evenodd" d="M155.752 149.553C156.407 149.987 160.723 150.339 160.777 148.612C160.009 148.017 158.991 148.32 158.032 148.499C157.592 148.572 157.156 148.674 156.728 148.802C156.133 148.981 155.811 149.011 155.752 149.553Z" fill="white"/>
<path fill-rule="evenodd" clip-rule="evenodd" d="M151.691 121.296L153.204 121.225L153.102 118.129L151.447 118.146L151.691 121.296Z" fill="#60A04D"/>
<path fill-rule="evenodd" clip-rule="evenodd" d="M157.829 122.219L159.335 122.35L159.74 119.373L158.097 119.194L157.829 122.219Z" fill="#60A04D"/>
<path fill-rule="evenodd" clip-rule="evenodd" d="M159.038 151.488C158.443 150.94 158.103 150.892 157.145 151.077C156.609 151.196 155.156 151.363 155.138 151.916C155.091 153.202 158.52 152.047 159.038 151.488Z" fill="white"/>
</g>
<g clip-path="url(#clip1_355_40954)">
<path fill-rule="evenodd" clip-rule="evenodd" d="M193.523 221.41H217L216.133 226.2H205.502L204.645 230.945L215.287 230.97L214.441 235.86H203.864C202.202 247.96 201.556 248.205 189.011 247.78L189.882 242.865C195.666 243.575 194.179 240.045 195.281 235.96L191.089 235.91L191.94 231.045H196.027L197.003 226.225H192.752L193.523 221.41Z" fill="#FF8D40"/>
<path fill-rule="evenodd" clip-rule="evenodd" d="M166.13 221.41H189.607L188.746 226.2H178.109L177.253 230.945L187.89 230.97L187.043 235.86H176.472C174.809 247.96 174.163 248.205 161.618 247.78L162.485 242.865C168.269 243.575 166.786 240.045 167.888 235.96L163.691 235.91L164.548 231.045H168.634L169.636 226.225H165.374L166.13 221.41Z" fill="#FF8D40"/>
<path fill-rule="evenodd" clip-rule="evenodd" d="M138.932 221.335H162.284L161.432 226.2H150.801L149.969 231H160.521L159.7 235.81H149.103C146.789 246 148.908 242.57 158.403 243.115L157.621 247.805H144.926C140.643 247.825 138.78 246.245 139.338 243.065L140.625 235.81H136.453L137.284 231H141.511L142.387 226.11L138.131 226.135L138.932 221.335Z" fill="#FF8D40"/>
<path fill-rule="evenodd" clip-rule="evenodd" d="M114.143 219H122.727L120.584 231.02H126.944L128.656 221.46L137.064 221.48L132.402 247.78H124.014L126.052 235.74L119.817 235.76L118.545 243.16L110.057 243.135L111.384 235.76H109.186L110.057 230.895H112.045L114.143 219Z" fill="#FF8D40"/>
<path fill-rule="evenodd" clip-rule="evenodd" d="M88.8428 226.105C89.5239 218.455 104.938 222.03 109.946 221.26L109.055 226.175H97.1909L94.1862 243.11L105.88 243.135L105.113 247.78C79.2176 248.37 85.8481 248.195 88.8428 226.105Z" fill="#FF8D40"/>
<path fill-rule="evenodd" clip-rule="evenodd" d="M77.7205 221.36H86.2339L82.4679 243.135C81.8737 246.235 79.4649 247.8 75.2416 247.83C53.0566 248.615 59.3565 246.55 61.6602 228.685L59.5418 228.71L60.4082 223.745H70.9598L67.6095 243.09H73.8794L77.7205 221.36Z" fill="#FF8D40"/>
<path fill-rule="evenodd" clip-rule="evenodd" d="M36.811 226.175C37.4019 222.965 39.789 221.36 43.9723 221.36H58.7806L57.9794 226.175H45.3294L44.5182 230.845C47.2675 231.585 57.2031 232.725 56.2567 235.765L54.9696 243.11C54.3036 250.635 37.9728 247 33 247.805L33.8013 243H46.5213L47.3877 238.33C44.6684 237.61 34.6175 236.4 35.5039 233.5L36.811 226.175Z" fill="#FF8D40"/>
</g>
<defs>
<clipPath id="clip0_355_40954">
<rect width="152" height="152" fill="white" transform="translate(49 52)"/>
</clipPath>
<clipPath id="clip1_355_40954">
<rect width="184" height="29" fill="white" transform="translate(33 219)"/>
</clipPath>
</defs>
</svg>
