<svg width="38" height="38" viewBox="0 0 38 38" fill="none" xmlns="http://www.w3.org/2000/svg">
<path d="M36.3672 14.2786C35.1056 9.64106 32.1136 5.77246 27.9422 3.38525C23.7709 0.998044 18.9189 0.377667 14.2817 1.6393C11.8194 2.30902 9.57733 3.4612 7.61753 5.06401C7.20239 5.4035 6.79737 5.7664 6.41406 6.14176C6.35334 6.20126 6.30494 6.27215 6.27162 6.35036C6.23829 6.42858 6.2207 6.51259 6.21985 6.5976C6.219 6.68261 6.2349 6.76696 6.26665 6.84583C6.2984 6.92469 6.34537 6.99654 6.40488 7.05725C6.52508 7.17987 6.68906 7.24972 6.86076 7.25144C6.94578 7.2523 7.03014 7.2364 7.10901 7.20465C7.18788 7.1729 7.25973 7.12594 7.32045 7.06643C7.67613 6.71768 8.05186 6.38088 8.43702 6.06598C10.2552 4.57919 12.3359 3.50987 14.6214 2.88848C18.9257 1.71795 23.428 2.29336 27.2992 4.50863C31.1705 6.72391 33.9473 10.3145 35.1179 14.6182C37.5346 23.5026 32.2717 32.6966 23.387 35.1131C19.0831 36.2836 14.5807 35.7082 10.7094 33.4928C6.83812 31.2773 4.06136 27.6869 2.89073 23.3832C1.88515 19.6868 2.15696 15.8794 3.67671 12.3721C4.03873 11.5374 4.46773 10.7333 4.95949 9.96775C5.05231 9.82336 5.08396 9.64802 5.04748 9.48029C5.011 9.31256 4.90938 9.1662 4.76498 9.07339C4.62058 8.98059 4.44522 8.94894 4.27748 8.98541C4.10974 9.02189 3.96336 9.1235 3.87055 9.26789C3.3411 10.0924 2.87926 10.9585 2.48958 11.8575C0.851103 15.6372 0.558067 19.74 1.64146 23.723C2.90302 28.3603 5.89502 32.2289 10.0664 34.6161C12.825 36.1949 15.8806 37.0008 18.9753 37.0007C20.5804 36.9995 22.1782 36.7848 23.7266 36.3621C33.3012 33.7583 38.9711 23.8523 36.3672 14.2786Z" fill="#FF8D40"/>
<path d="M9.89377 26.9807C12.1168 29.5147 15.3766 31.1175 19.0048 31.1175C25.6865 31.1175 31.1225 25.682 31.1225 19.0008C31.1225 12.3196 25.6865 6.88406 19.0048 6.88406C18.563 6.88425 18.1215 6.90842 17.6823 6.95647C17.675 6.95647 17.668 6.95799 17.6609 6.959C11.6094 7.62973 6.88713 12.7738 6.88713 19.0008C6.88713 21.9898 7.97591 24.7292 9.77673 26.8444C9.80926 26.895 9.84865 26.9409 9.89377 26.9807ZM19.0048 29.823C16.1604 29.823 13.569 28.7195 11.6353 26.9188C13.8235 26.4443 16.9372 25.2825 19.3317 22.438C20.1169 21.5028 20.7643 20.4602 21.2543 19.3418C23.8945 22.1005 27.0241 23.2486 28.7526 23.7003C27.0001 27.3203 23.289 29.823 19.0043 29.823H19.0048ZM29.8279 19.0008C29.829 20.1879 29.6339 21.3671 29.2504 22.4907C27.6 22.0777 23.1555 20.5925 20.4238 16.1589C18.5515 13.1198 18.2993 10.0429 18.3659 8.19807C18.5774 8.18561 18.7903 8.17853 19.0048 8.17853C24.9723 8.17836 29.8274 13.0333 29.8274 19.0008H29.8279ZM17.0664 8.35266C17.0204 10.3824 17.3438 13.6269 19.3218 16.8375C19.6226 17.326 19.9512 17.7969 20.3058 18.2479C20.3058 18.2494 20.3043 18.2509 20.3036 18.2526C19.8321 19.4912 19.1717 20.6188 18.3421 21.6037C15.8852 24.5219 12.5636 25.4831 10.591 25.799C9.03061 23.8769 8.18013 21.4759 8.18271 19.0003C8.1812 13.6947 12.0196 9.26908 17.0664 8.35266Z" fill="#FF8D40"/>
<path d="M36.3672 14.2786C35.1056 9.64106 32.1136 5.77246 27.9422 3.38525C23.7709 0.998044 18.9189 0.377667 14.2817 1.6393C11.8194 2.30902 9.57733 3.4612 7.61753 5.06401C7.20239 5.4035 6.79737 5.7664 6.41406 6.14176C6.35334 6.20126 6.30494 6.27215 6.27162 6.35036C6.23829 6.42858 6.2207 6.51259 6.21985 6.5976C6.219 6.68261 6.2349 6.76696 6.26665 6.84583C6.2984 6.92469 6.34537 6.99654 6.40488 7.05725C6.52508 7.17987 6.68906 7.24972 6.86076 7.25144C6.94578 7.2523 7.03014 7.2364 7.10901 7.20465C7.18788 7.1729 7.25973 7.12594 7.32045 7.06643C7.67613 6.71768 8.05186 6.38088 8.43702 6.06598C10.2552 4.57919 12.3359 3.50987 14.6214 2.88848C18.9257 1.71795 23.428 2.29336 27.2992 4.50863C31.1705 6.72391 33.9473 10.3145 35.1179 14.6182C37.5346 23.5026 32.2717 32.6966 23.387 35.1131C19.0831 36.2836 14.5807 35.7082 10.7094 33.4928C6.83812 31.2773 4.06136 27.6869 2.89073 23.3832C1.88515 19.6868 2.15696 15.8794 3.67671 12.3721C4.03873 11.5374 4.46773 10.7333 4.95949 9.96775C5.05231 9.82336 5.08396 9.64802 5.04748 9.48029C5.011 9.31256 4.90938 9.1662 4.76498 9.07339C4.62058 8.98059 4.44522 8.94894 4.27748 8.98541C4.10974 9.02189 3.96336 9.1235 3.87055 9.26789C3.3411 10.0924 2.87926 10.9585 2.48958 11.8575C0.851103 15.6372 0.558067 19.74 1.64146 23.723C2.90302 28.3603 5.89502 32.2289 10.0664 34.6161C12.825 36.1949 15.8806 37.0008 18.9753 37.0007C20.5804 36.9995 22.1782 36.7848 23.7266 36.3621C33.3012 33.7583 38.9711 23.8523 36.3672 14.2786Z" stroke="#FF8D40" stroke-width="0.5"/>
<path d="M9.89377 26.9807C12.1168 29.5147 15.3766 31.1175 19.0048 31.1175C25.6865 31.1175 31.1225 25.682 31.1225 19.0008C31.1225 12.3196 25.6865 6.88406 19.0048 6.88406C18.563 6.88425 18.1215 6.90842 17.6823 6.95647C17.675 6.95647 17.668 6.95799 17.6609 6.959C11.6094 7.62973 6.88713 12.7738 6.88713 19.0008C6.88713 21.9898 7.97591 24.7292 9.77673 26.8444C9.80926 26.895 9.84865 26.9409 9.89377 26.9807ZM19.0048 29.823C16.1604 29.823 13.569 28.7195 11.6353 26.9188C13.8235 26.4443 16.9372 25.2825 19.3317 22.438C20.1169 21.5028 20.7643 20.4602 21.2543 19.3418C23.8945 22.1005 27.0241 23.2486 28.7526 23.7003C27.0001 27.3203 23.289 29.823 19.0043 29.823H19.0048ZM29.8279 19.0008C29.829 20.1879 29.6339 21.3671 29.2504 22.4907C27.6 22.0777 23.1555 20.5925 20.4238 16.1589C18.5515 13.1198 18.2993 10.0429 18.3659 8.19807C18.5774 8.18561 18.7903 8.17853 19.0048 8.17853C24.9723 8.17836 29.8274 13.0333 29.8274 19.0008H29.8279ZM17.0664 8.35266C17.0204 10.3824 17.3438 13.6269 19.3218 16.8375C19.6226 17.326 19.9512 17.7969 20.3058 18.2479C20.3058 18.2494 20.3043 18.2509 20.3036 18.2526C19.8321 19.4912 19.1717 20.6188 18.3421 21.6037C15.8852 24.5219 12.5636 25.4831 10.591 25.799C9.03061 23.8769 8.18013 21.4759 8.18271 19.0003C8.1812 13.6947 12.0196 9.26908 17.0664 8.35266Z" stroke="#FF8D40" stroke-width="0.5"/>
</svg>
