<svg width="38" height="38" viewBox="0 0 38 38" fill="none" xmlns="http://www.w3.org/2000/svg">
<path d="M35.1738 7.96674L22.9053 1.81055C20.7518 0.729991 17.248 0.730148 15.0947 1.81055L13.2721 2.72519C13.1186 2.80513 13.0056 2.937 12.9576 3.09234C12.9096 3.24767 12.9304 3.41401 13.0155 3.55546C13.1007 3.69691 13.2433 3.80212 13.4126 3.84839C13.582 3.89466 13.7644 3.87827 13.9206 3.80277L15.7433 2.88813C17.5087 2.00226 20.4915 2.00226 22.2567 2.88813L34.5253 9.04432C35.2423 9.40399 35.6535 9.86264 35.6535 10.3025C35.6535 10.7424 35.2425 11.2009 34.5253 11.5606L22.2567 17.7168C20.4915 18.6026 17.5087 18.6026 15.7433 17.7168L3.47473 11.5606C2.75788 11.2009 2.34654 10.7422 2.34654 10.3025C2.34654 9.86279 2.75754 9.40414 3.47473 9.04432L10.3944 5.57279C10.4734 5.53463 10.5432 5.48252 10.5999 5.41948C10.6566 5.35645 10.6989 5.28374 10.7245 5.20561C10.7501 5.12747 10.7585 5.04547 10.749 4.96436C10.7396 4.88326 10.7126 4.80469 10.6695 4.73321C10.6265 4.66174 10.5684 4.59879 10.4985 4.54803C10.4285 4.49728 10.3483 4.45974 10.2623 4.43759C10.1764 4.41544 10.0864 4.40912 9.99777 4.41901C9.90911 4.42891 9.8235 4.4548 9.74591 4.4952L2.82621 7.96674C1.65195 8.55596 1.00411 9.38194 1 10.2947C1 10.2974 1 10.2999 1 10.3025L1.00103 27.6319C0.97397 28.4898 1.56701 29.395 2.44723 29.8368L14.7158 35.993C15.9381 36.6063 17.3934 36.9367 18.8258 36.9789C18.9326 37.0058 19.0451 37.0074 19.1528 36.9838C20.516 36.9819 21.8415 36.717 22.9048 36.1831L35.1733 30.027C36.3778 29.4226 37.0416 28.5403 36.9974 27.6031L36.9995 10.6298C36.9994 10.59 36.9951 10.5503 36.9866 10.5113C36.9948 10.4417 36.9991 10.3718 36.9995 10.3019C37 9.38725 36.3515 8.55768 35.1738 7.96674ZM35.6523 27.6497C35.6778 28.1032 35.2671 28.577 34.5253 28.9492L22.2567 35.1057C21.5264 35.4723 20.6246 35.6812 19.6733 35.7375V27.9467C19.6705 27.7853 19.5983 27.6315 19.4723 27.5183C19.3464 27.4051 19.1767 27.3416 19 27.3416C18.8233 27.3416 18.6536 27.4051 18.5277 27.5183C18.4017 27.6315 18.3295 27.7853 18.3267 27.9467V35.7164C17.2807 35.6239 16.2424 35.3559 15.3641 34.9153L3.09576 28.7591C2.65359 28.5372 2.33181 28.066 2.34705 27.6632V12.3643C2.50117 12.4637 2.66125 12.5551 2.82655 12.6381L15.0951 18.7943C16.0005 19.2488 17.1449 19.5112 18.3271 19.5834V25.0085C18.3299 25.1699 18.4021 25.3238 18.528 25.437C18.654 25.5502 18.8236 25.6136 19.0003 25.6136C19.1771 25.6136 19.3467 25.5502 19.4727 25.437C19.5986 25.3238 19.6708 25.1699 19.6736 25.0085V19.5834C20.8552 19.5112 22.0002 19.2488 22.9056 18.7943L35.1741 12.6381C35.3394 12.5552 35.4995 12.4638 35.6536 12.3645L35.6517 27.618L35.6523 27.6497Z" fill="#FF8D40"/>
<path d="M8.20962 10.3026C8.20962 10.9254 8.65128 11.5043 9.42122 11.8907L16.5846 15.4856C17.2619 15.8254 18.1308 15.9954 18.9992 15.9953C19.8676 15.9951 20.7374 15.8254 21.4139 15.4856L28.5781 11.8907C29.3487 11.5043 29.7897 10.9254 29.7897 10.3026C29.7897 9.67973 29.348 9.10082 28.5781 8.71442L24.1026 6.46793C24.0175 6.39312 23.9121 6.34024 23.7973 6.31468L21.4154 5.1195C20.061 4.43989 17.939 4.43989 16.5846 5.1195L9.42036 8.71442C8.65042 9.10051 8.20962 9.6791 8.20962 10.3026ZM20.7677 14.4081C19.8259 14.8803 18.1753 14.8803 17.234 14.4081L14.6139 13.0928L18.9859 10.4547L23.7882 12.892L20.7677 14.4081ZM28.4455 10.3026C28.4455 10.4589 28.2488 10.6541 27.9318 10.813L25.1827 12.1925L20.2507 9.69051L23.6463 7.642L27.9313 9.79216C28.2479 9.95088 28.4447 10.1467 28.4447 10.3026H28.4455ZM17.2331 6.19709C17.7037 5.96096 18.3517 5.8429 19.0001 5.8429C19.6484 5.8429 20.2964 5.96096 20.7669 6.19709L22.3126 6.97271L18.9237 9.01748L15.2879 7.17318L17.2331 6.19709ZM10.0689 9.792L13.8941 7.87249L17.6571 9.78168L13.2786 12.4236L10.0689 10.813C9.75207 10.6541 9.55514 10.4585 9.55514 10.3026C9.55514 10.1467 9.75207 9.95088 10.0689 9.792Z" fill="#FF8D40"/>
<path d="M35.1738 7.96674L22.9053 1.81055C20.7518 0.729991 17.248 0.730148 15.0947 1.81055L13.2721 2.72519C13.1186 2.80513 13.0056 2.937 12.9576 3.09234C12.9096 3.24767 12.9304 3.41401 13.0155 3.55546C13.1007 3.69691 13.2433 3.80212 13.4126 3.84839C13.582 3.89466 13.7644 3.87827 13.9206 3.80277L15.7433 2.88813C17.5087 2.00226 20.4915 2.00226 22.2567 2.88813L34.5253 9.04432C35.2423 9.40399 35.6535 9.86264 35.6535 10.3025C35.6535 10.7424 35.2425 11.2009 34.5253 11.5606L22.2567 17.7168C20.4915 18.6026 17.5087 18.6026 15.7433 17.7168L3.47473 11.5606C2.75788 11.2009 2.34654 10.7422 2.34654 10.3025C2.34654 9.86279 2.75754 9.40414 3.47473 9.04432L10.3944 5.57279C10.4734 5.53463 10.5432 5.48252 10.5999 5.41948C10.6566 5.35645 10.6989 5.28374 10.7245 5.20561C10.7501 5.12747 10.7585 5.04547 10.749 4.96436C10.7396 4.88326 10.7126 4.80469 10.6695 4.73321C10.6265 4.66174 10.5684 4.59879 10.4985 4.54803C10.4285 4.49728 10.3483 4.45974 10.2623 4.43759C10.1764 4.41544 10.0864 4.40912 9.99777 4.41901C9.90911 4.42891 9.8235 4.4548 9.74591 4.4952L2.82621 7.96674C1.65195 8.55596 1.00411 9.38194 1 10.2947C1 10.2974 1 10.2999 1 10.3025L1.00103 27.6319C0.97397 28.4898 1.56701 29.395 2.44723 29.8368L14.7158 35.993C15.9381 36.6063 17.3934 36.9367 18.8258 36.9789C18.9326 37.0058 19.0451 37.0074 19.1528 36.9838C20.516 36.9819 21.8415 36.717 22.9048 36.1831L35.1733 30.027C36.3778 29.4226 37.0416 28.5403 36.9974 27.6031L36.9995 10.6298C36.9994 10.59 36.9951 10.5503 36.9866 10.5113C36.9948 10.4417 36.9991 10.3718 36.9995 10.3019C37 9.38725 36.3515 8.55768 35.1738 7.96674ZM35.6523 27.6497C35.6778 28.1032 35.2671 28.577 34.5253 28.9492L22.2567 35.1057C21.5264 35.4723 20.6246 35.6812 19.6733 35.7375V27.9467C19.6705 27.7853 19.5983 27.6315 19.4723 27.5183C19.3464 27.4051 19.1767 27.3416 19 27.3416C18.8233 27.3416 18.6536 27.4051 18.5277 27.5183C18.4017 27.6315 18.3295 27.7853 18.3267 27.9467V35.7164C17.2807 35.6239 16.2424 35.3559 15.3641 34.9153L3.09576 28.7591C2.65359 28.5372 2.33181 28.066 2.34705 27.6632V12.3643C2.50117 12.4637 2.66125 12.5551 2.82655 12.6381L15.0951 18.7943C16.0005 19.2488 17.1449 19.5112 18.3271 19.5834V25.0085C18.3299 25.1699 18.4021 25.3238 18.528 25.437C18.654 25.5502 18.8236 25.6136 19.0003 25.6136C19.1771 25.6136 19.3467 25.5502 19.4727 25.437C19.5986 25.3238 19.6708 25.1699 19.6736 25.0085V19.5834C20.8552 19.5112 22.0002 19.2488 22.9056 18.7943L35.1741 12.6381C35.3394 12.5552 35.4995 12.4638 35.6536 12.3645L35.6517 27.618L35.6523 27.6497Z" stroke="#FF8D40" stroke-width="0.5"/>
<path d="M8.20962 10.3026C8.20962 10.9254 8.65128 11.5043 9.42122 11.8907L16.5846 15.4856C17.2619 15.8254 18.1308 15.9954 18.9992 15.9953C19.8676 15.9951 20.7374 15.8254 21.4139 15.4856L28.5781 11.8907C29.3487 11.5043 29.7897 10.9254 29.7897 10.3026C29.7897 9.67973 29.348 9.10082 28.5781 8.71442L24.1026 6.46793C24.0175 6.39312 23.9121 6.34024 23.7973 6.31468L21.4154 5.1195C20.061 4.43989 17.939 4.43989 16.5846 5.1195L9.42036 8.71442C8.65042 9.10051 8.20962 9.6791 8.20962 10.3026ZM20.7677 14.4081C19.8259 14.8803 18.1753 14.8803 17.234 14.4081L14.6139 13.0928L18.9859 10.4547L23.7882 12.892L20.7677 14.4081ZM28.4455 10.3026C28.4455 10.4589 28.2488 10.6541 27.9318 10.813L25.1827 12.1925L20.2507 9.69051L23.6463 7.642L27.9313 9.79216C28.2479 9.95088 28.4447 10.1467 28.4447 10.3026H28.4455ZM17.2331 6.19709C17.7037 5.96096 18.3517 5.8429 19.0001 5.8429C19.6484 5.8429 20.2964 5.96096 20.7669 6.19709L22.3126 6.97271L18.9237 9.01748L15.2879 7.17318L17.2331 6.19709ZM10.0689 9.792L13.8941 7.87249L17.6571 9.78168L13.2786 12.4236L10.0689 10.813C9.75207 10.6541 9.55514 10.4585 9.55514 10.3026C9.55514 10.1467 9.75207 9.95088 10.0689 9.792Z" stroke="#FF8D40" stroke-width="0.5"/>
</svg>
