<svg width="36" height="36" viewBox="0 0 36 36" fill="none" xmlns="http://www.w3.org/2000/svg">
<path d="M13.7555 0H3.73553C1.67576 0 0.000108703 1.69165 0.000108703 3.7711V5.27883C0.00359218 5.49359 0.090543 5.69836 0.242211 5.84899C0.393878 5.99962 0.598111 6.08404 0.810867 6.08404C1.02362 6.08404 1.22786 5.99962 1.37952 5.84899C1.53119 5.69836 1.61814 5.49359 1.62162 5.27883V3.7711C1.62226 3.2053 1.84518 2.66285 2.24147 2.26277C2.63777 1.86269 3.17508 1.63764 3.73553 1.637H13.7555C14.316 1.63764 14.8533 1.86268 15.2496 2.26276C15.646 2.66283 15.8689 3.20528 15.8696 3.7711V13.8868C15.8689 14.4526 15.646 14.9951 15.2496 15.3952C14.8533 15.7953 14.316 16.0204 13.7555 16.0211H3.73553C3.17506 16.0204 2.63775 15.7953 2.24146 15.3952C1.84517 14.995 1.62226 14.4526 1.62162 13.8868V8.34522C1.62339 8.23661 1.60372 8.12872 1.56376 8.02786C1.52381 7.927 1.46437 7.83517 1.38891 7.75773C1.31345 7.68029 1.22348 7.61879 1.12424 7.57681C1.02499 7.53483 0.918468 7.51321 0.810867 7.51321C0.703265 7.51321 0.596739 7.53483 0.497497 7.57681C0.398256 7.61879 0.308283 7.68029 0.232823 7.75773C0.157362 7.83517 0.097923 7.927 0.0579695 8.02786C0.0180159 8.12872 -0.00165307 8.23661 0.000108703 8.34522V13.8868C0.000108703 15.9662 1.67576 17.6579 3.73553 17.6579H13.7555C15.8153 17.6579 17.4909 15.9662 17.4909 13.8868V3.7711C17.4909 1.69165 15.8153 0 13.7555 0Z" fill="#FF8D40"/>
<path d="M5.6725 14.5612H11.8188C12.5093 14.5601 13.1711 14.2827 13.6594 13.7897C14.1476 13.2968 14.4223 12.6286 14.4233 11.9315V5.72654C14.4223 5.02948 14.1476 4.36126 13.6594 3.86833C13.1711 3.37541 12.5093 3.098 11.8188 3.09689H5.6725C4.98199 3.09794 4.32006 3.37533 3.83179 3.86826C3.34352 4.36118 3.06876 5.02944 3.06773 5.72654V11.9315C3.06876 12.6286 3.34352 13.2969 3.83179 13.7898C4.32006 14.2827 4.98199 14.5601 5.6725 14.5612ZM4.68902 5.72654C4.68931 5.46331 4.79302 5.21094 4.9774 5.0248C5.16177 4.83867 5.41175 4.73397 5.6725 4.73368H11.8188C12.0795 4.73397 12.3295 4.83867 12.5138 5.02482C12.6981 5.21096 12.8018 5.46333 12.802 5.72654V11.9315C12.8018 12.1947 12.6981 12.447 12.5137 12.6331C12.3294 12.8192 12.0795 12.9239 11.8188 12.9242H5.6725C5.41177 12.9239 5.16179 12.8193 4.97741 12.6332C4.79303 12.4471 4.68931 12.1947 4.68902 11.9315V5.72654Z" fill="#FF8D40"/>
<path d="M32.265 0H22.2448C20.1851 0 18.5094 1.69165 18.5094 3.7711V5.27883C18.5129 5.49359 18.5998 5.69836 18.7515 5.84899C18.9032 5.99962 19.1074 6.08404 19.3202 6.08404C19.5329 6.08404 19.7372 5.99962 19.8888 5.84899C20.0405 5.69836 20.1274 5.49359 20.1309 5.27883V3.7711C20.1316 3.2053 20.3545 2.66285 20.7508 2.26277C21.1471 1.86269 21.6844 1.63764 22.2448 1.637H32.265C32.8255 1.63764 33.3628 1.86269 33.7591 2.26277C34.1554 2.66285 34.3783 3.2053 34.3789 3.7711V13.8868C34.3783 14.4526 34.1554 14.995 33.7591 15.3952C33.3628 15.7953 32.8255 16.0204 32.265 16.0211H22.2448C21.6843 16.0205 21.1469 15.7954 20.7505 15.3953C20.3541 14.9952 20.1311 14.4527 20.1305 13.8868V8.34522C20.1323 8.23661 20.1126 8.12872 20.0726 8.02786C20.0327 7.927 19.9732 7.83517 19.8978 7.75773C19.8223 7.68029 19.7323 7.61879 19.6331 7.57681C19.5339 7.53483 19.4273 7.51321 19.3197 7.51321C19.2121 7.51321 19.1056 7.53483 19.0064 7.57681C18.9071 7.61879 18.8172 7.68029 18.7417 7.75773C18.6662 7.83517 18.6068 7.927 18.5668 8.02786C18.5269 8.12872 18.5072 8.23661 18.509 8.34522V13.8868C18.509 15.9662 20.1846 17.6579 22.2444 17.6579H32.2646C34.3241 17.6579 36 15.9662 36 13.8868V3.7711C36 1.69165 34.3246 0 32.265 0Z" fill="#FF8D40"/>
<path d="M24.1818 14.5612H30.3281C31.0186 14.5601 31.6805 14.2827 32.1688 13.7898C32.657 13.2969 32.9318 12.6286 32.9328 11.9315V5.72654C32.9318 5.02944 32.657 4.36118 32.1688 3.86826C31.6805 3.37533 31.0186 3.09794 30.3281 3.09689H24.1818C23.4913 3.09794 22.8293 3.37533 22.3411 3.86826C21.8528 4.36118 21.578 5.02944 21.577 5.72654V11.9315C21.578 12.6286 21.8528 13.2969 22.3411 13.7898C22.8293 14.2827 23.4913 14.5601 24.1818 14.5612ZM23.1985 5.72654C23.1988 5.46333 23.3024 5.21096 23.4868 5.02482C23.6711 4.83867 23.9211 4.73397 24.1818 4.73368H30.3281C30.5888 4.73397 30.8387 4.83867 31.0231 5.02482C31.2074 5.21096 31.3111 5.46333 31.3113 5.72654V11.9315C31.311 12.1947 31.2073 12.447 31.023 12.6331C30.8387 12.8192 30.5887 12.9239 30.3281 12.9242H24.1818C23.9211 12.9239 23.6712 12.8192 23.4868 12.6331C23.3025 12.447 23.1988 12.1947 23.1985 11.9315V5.72654Z" fill="#FF8D40"/>
<path d="M13.7555 18.3408H3.73555C1.67577 18.3408 0.000128035 20.0327 0.000128035 22.1119V23.6197C0.00361151 23.8344 0.0905623 24.0392 0.24223 24.1898C0.393898 24.3405 0.59813 24.4249 0.810886 24.4249C1.02364 24.4249 1.22787 24.3405 1.37954 24.1898C1.53121 24.0392 1.61816 23.8344 1.62164 23.6197V22.1119C1.62228 21.5461 1.84519 21.0037 2.24149 20.6036C2.63779 20.2035 3.1751 19.9785 3.73555 19.9778H13.7555C14.316 19.9785 14.8533 20.2035 15.2496 20.6036C15.646 21.0037 15.8689 21.5461 15.8696 22.1119V32.2276C15.869 32.7934 15.6461 33.3359 15.2497 33.7361C14.8534 34.1362 14.316 34.3613 13.7555 34.3619H3.73555C3.17506 34.3613 2.63772 34.1362 2.24141 33.7361C1.84511 33.3359 1.62222 32.7934 1.62164 32.2276V26.6872C1.61816 26.4724 1.53121 26.2676 1.37954 26.117C1.22787 25.9664 1.02364 25.8819 0.810886 25.8819C0.59813 25.8819 0.393898 25.9664 0.24223 26.117C0.0905623 26.2676 0.00361151 26.4724 0.000128035 26.6872V32.2287C0.000128035 34.3081 1.67577 36 3.73555 36H13.7555C15.8153 36 17.4909 34.3081 17.4909 32.2287V22.1119C17.4909 20.0327 15.8153 18.3408 13.7555 18.3408Z" fill="#FF8D40"/>
<path d="M5.6725 32.902H11.8188C12.5093 32.9009 13.1711 32.6235 13.6594 32.1306C14.1476 31.6376 14.4223 30.9694 14.4233 30.2724V24.0674C14.4223 23.3703 14.1476 22.7021 13.6594 22.2092C13.1711 21.7162 12.5093 21.4388 11.8188 21.4377H5.6725C4.98199 21.4388 4.32006 21.7162 3.83179 22.2091C3.34352 22.702 3.06876 23.3703 3.06773 24.0674V30.2724C3.06876 30.9695 3.34352 31.6377 3.83179 32.1306C4.32006 32.6236 4.98199 32.901 5.6725 32.902ZM4.68902 24.0674C4.68931 23.8042 4.79303 23.5518 4.97741 23.3657C5.16179 23.1796 5.41177 23.075 5.6725 23.0747H11.8188C12.0795 23.075 12.3294 23.1797 12.5137 23.3658C12.6981 23.5519 12.8018 23.8042 12.802 24.0674V30.2724C12.8018 30.5355 12.6981 30.7879 12.5137 30.9739C12.3294 31.16 12.0795 31.2647 11.8188 31.265H5.6725C5.41177 31.2648 5.16179 31.1601 4.97741 30.974C4.79303 30.7879 4.68931 30.5356 4.68902 30.2724V24.0674Z" fill="#FF8D40"/>
<path d="M32.265 18.3408H22.2448C20.1851 18.3408 18.5094 20.0327 18.5094 22.1119V23.6197C18.5129 23.8344 18.5998 24.0392 18.7515 24.1898C18.9032 24.3405 19.1074 24.4249 19.3202 24.4249C19.5329 24.4249 19.7372 24.3405 19.8888 24.1898C20.0405 24.0392 20.1274 23.8344 20.1309 23.6197V22.1119C20.1316 21.5461 20.3545 21.0037 20.7508 20.6036C21.1471 20.2035 21.6844 19.9785 22.2448 19.9778H32.265C32.8255 19.9785 33.3628 20.2035 33.7591 20.6036C34.1554 21.0037 34.3783 21.5461 34.3789 22.1119V32.2276C34.3783 32.7934 34.1554 33.3359 33.7591 33.7361C33.3628 34.1362 32.8255 34.3613 32.265 34.3619H22.2448C21.6843 34.3614 21.1468 34.1364 20.7504 33.7362C20.354 33.3361 20.1311 32.7935 20.1305 32.2276V26.6872C20.127 26.4724 20.0401 26.2676 19.8884 26.117C19.7367 25.9664 19.5325 25.8819 19.3197 25.8819C19.107 25.8819 18.9027 25.9664 18.7511 26.117C18.5994 26.2676 18.5125 26.4724 18.509 26.6872V32.2287C18.509 34.3081 20.1846 36 22.2444 36H32.2646C34.3241 36 36 34.3081 36 32.2287V22.1119C36 20.0327 34.3246 18.3408 32.265 18.3408Z" fill="#FF8D40"/>
<path d="M24.1818 32.902H30.3281C31.0186 32.901 31.6805 32.6236 32.1688 32.1306C32.657 31.6377 32.9318 30.9695 32.9328 30.2724V24.0674C32.9318 23.3703 32.657 22.702 32.1688 22.2091C31.6805 21.7162 31.0186 21.4388 30.3281 21.4377H24.1818C23.4913 21.4388 22.8293 21.7162 22.3411 22.2091C21.8528 22.702 21.578 23.3703 21.577 24.0674V30.2724C21.578 30.9695 21.8528 31.6377 22.3411 32.1306C22.8293 32.6236 23.4913 32.901 24.1818 32.902ZM23.1985 24.0674C23.1988 23.8042 23.3025 23.5519 23.4868 23.3658C23.6712 23.1797 23.9211 23.075 24.1818 23.0747H30.3281C30.5887 23.075 30.8387 23.1797 31.023 23.3658C31.2073 23.5519 31.311 23.8042 31.3113 24.0674V30.2724C31.311 30.5355 31.2073 30.7879 31.023 30.9739C30.8387 31.16 30.5887 31.2647 30.3281 31.265H24.1818C23.9211 31.2647 23.6712 31.16 23.4868 30.9739C23.3025 30.7879 23.1988 30.5355 23.1985 30.2724V24.0674Z" fill="#FF8D40"/>
</svg>
