<svg width="38" height="34" viewBox="0 0 38 34" fill="none" xmlns="http://www.w3.org/2000/svg">
<path d="M24.0599 10.375H13.9001C11.9133 10.375 10.2973 12.0049 10.2973 14.0081V24.2532C10.2973 26.2567 11.9136 27.8863 13.9001 27.8863H24.0599C26.0467 27.8863 27.6628 26.2564 27.6628 24.2532V14.0084C27.6631 12.0049 26.0467 10.375 24.0599 10.375ZM26.388 14.0081V22.2932C24.9392 21.9202 22.527 20.9618 20.672 18.5364C18.6883 15.9429 18.4694 13.1604 18.5295 11.6602H24.0599C25.3436 11.6608 26.3886 12.7139 26.3886 14.0084L26.388 14.0081ZM11.5721 14.0081C11.5721 12.7136 12.6164 11.6605 13.9001 11.6605H17.2541C17.2006 13.1936 17.4136 15.8583 19.0774 18.4814C18.5823 19.811 17.8028 21.0168 16.8104 21.9843C15.0156 23.7335 12.9361 24.3446 11.5918 24.5552C11.5789 24.4552 11.5723 24.3544 11.5721 24.2535V14.0081ZM26.3886 24.2535C26.3886 25.548 25.3442 26.6011 24.0606 26.6011H13.9001C13.5615 26.6011 13.227 26.5264 12.92 26.3823C12.613 26.2382 12.3409 26.0282 12.1229 25.7669C13.6392 25.4814 15.8039 24.7526 17.6963 22.9087C18.6325 21.9965 19.4009 20.898 19.9565 19.6887C22.1359 22.3121 24.8826 23.272 26.388 23.6155L26.3886 24.2535Z" fill="#FF8D40"/>
<path d="M36.9598 10.792V8.08896C36.9598 4.18021 33.8062 1.00009 29.93 1.00009H8.02982C4.15363 1.00009 1 4.18021 1 8.08896V10.792C1.00016 11.1826 1.15386 11.5573 1.42742 11.8339C1.70099 12.1106 2.07212 12.2666 2.45953 12.2678C2.58209 12.2676 2.70415 12.2521 2.82288 12.2214L5.2262 11.6061V27.4821C5.2262 30.5248 7.68103 33.0001 10.6984 33.0001H27.2614C30.2788 33.0001 32.7336 30.5248 32.7336 27.4821V11.6064L35.1369 12.2217C35.3951 12.2877 35.6662 12.2815 35.9211 12.2037C36.176 12.126 36.4051 11.9797 36.5837 11.7805C36.664 11.751 36.7375 11.7055 36.7999 11.6466C36.8623 11.5877 36.9121 11.5167 36.9465 11.4378C36.9809 11.3589 36.9991 11.2738 37 11.1877C37.0009 11.1015 36.9844 11.0161 36.9517 10.9365C36.9569 10.8888 36.9598 10.8407 36.9598 10.792ZM35.6847 8.08896V9.25897L30.2956 2.29873C33.299 2.48982 35.6847 5.01304 35.6847 8.08896ZM24.0177 2.28574L26.3219 5.26179H21.0569L18.7535 2.28574H24.0177ZM17.1339 2.28574L19.4382 5.26179H14.2405L11.9364 2.28574H17.1339ZM8.02874 2.28574H10.3247C10.3376 2.30718 10.3517 2.32783 10.3669 2.34758L12.6229 5.26179H10.6984C10.6064 5.26179 10.5152 5.26416 10.4247 5.2689C10.394 5.27029 10.3652 5.27339 10.3353 5.27539C10.2749 5.27941 10.2144 5.28328 10.1546 5.28931C10.119 5.29271 10.0839 5.29781 10.0486 5.30214C9.99497 5.30848 9.94131 5.31466 9.88811 5.3227C9.8507 5.32827 9.81376 5.33538 9.7765 5.34172C9.72606 5.35038 9.67562 5.35888 9.62564 5.36893C9.58762 5.37666 9.55006 5.38547 9.51234 5.39382C9.4639 5.40464 9.41545 5.41546 9.36762 5.42768C9.3296 5.43726 9.29204 5.44793 9.25432 5.4586C9.20741 5.47158 9.16049 5.48457 9.11404 5.49879C9.07648 5.51039 9.03922 5.5226 9.00197 5.53497C8.95598 5.55043 8.90998 5.56589 8.86567 5.58135C8.82857 5.59464 8.79178 5.60856 8.75514 5.62278C8.71068 5.63979 8.66647 5.65736 8.62252 5.6755C8.58614 5.69065 8.55 5.70611 8.51413 5.72188C8.47069 5.74105 8.42761 5.76074 8.38489 5.78094C8.34952 5.79763 8.31431 5.81464 8.27926 5.83195C8.23674 5.85329 8.19463 5.87509 8.15293 5.89735C8.11874 5.91559 8.0844 5.93399 8.05067 5.95301C8.00912 5.9762 7.96803 6.00031 7.92725 6.02459C7.89414 6.04422 7.86117 6.06385 7.82852 6.08411C7.78774 6.10962 7.74772 6.1359 7.70756 6.16233C7.67613 6.18321 7.64439 6.20392 7.61342 6.22526C7.5731 6.25308 7.5337 6.28199 7.49414 6.3109C7.46456 6.33255 7.43451 6.35388 7.40538 6.37615C7.36521 6.40707 7.32611 6.43799 7.28702 6.46999C7.25958 6.4921 7.23168 6.51389 7.20454 6.53662L7.18599 6.55208L4.71015 3.35341C5.67972 2.65815 6.8401 2.28495 8.02982 2.28574H8.02874ZM2.50905 10.9756C2.48132 10.9827 2.45236 10.9833 2.42438 10.9773C2.39639 10.9714 2.37012 10.9591 2.34755 10.9414C2.32498 10.9237 2.30671 10.9011 2.29412 10.8752C2.28154 10.8493 2.27498 10.8208 2.27494 10.792V8.08896C2.27379 6.65518 2.80113 5.27215 3.75456 4.2085L6.30168 7.49885C6.28911 7.51601 6.27731 7.53379 6.26489 7.5511C6.23423 7.59331 6.20356 7.63552 6.17489 7.67849C6.15466 7.70864 6.13534 7.73941 6.11556 7.76986C6.08858 7.8116 6.06144 7.85335 6.03538 7.89586C6.01576 7.92786 5.99721 7.96064 5.9782 7.99326C5.95367 8.03531 5.92929 8.07721 5.90583 8.11988C5.88728 8.15373 5.86965 8.18806 5.85187 8.22222C5.82964 8.26474 5.80771 8.30725 5.78656 8.35039C5.76938 8.38579 5.75298 8.42135 5.73642 8.45706C5.71649 8.50019 5.69687 8.54348 5.67801 8.58723C5.66268 8.62372 5.64735 8.66051 5.63202 8.69746C5.61413 8.74137 5.59681 8.78558 5.58004 8.83011C5.56594 8.86762 5.55224 8.90535 5.53896 8.94328C5.52363 8.98811 5.50829 9.0331 5.49296 9.0784C5.48049 9.11694 5.46843 9.15559 5.45678 9.19435C5.44314 9.24073 5.43026 9.28618 5.41784 9.33225C5.40726 9.37152 5.39684 9.41079 5.38718 9.45021C5.37568 9.49659 5.36525 9.54421 5.35483 9.59136C5.34609 9.63109 5.3375 9.67082 5.32953 9.71086C5.32018 9.75879 5.31205 9.80703 5.30393 9.85526C5.29718 9.89546 5.29028 9.9355 5.28431 9.97585C5.27725 10.0252 5.27143 10.0748 5.2656 10.1244C5.26085 10.1645 5.25564 10.2045 5.2518 10.2449C5.25088 10.2546 5.24935 10.2642 5.24843 10.2741L2.50905 10.9756ZM31.4585 27.4821C31.4585 29.8166 29.5757 31.7144 27.2614 31.7144H10.6984C8.38335 31.7144 6.5013 29.8158 6.5013 27.4821V10.7799C6.5013 8.44546 8.38412 6.5476 10.6984 6.5476H27.2614C29.5764 6.5476 31.4585 8.44624 31.4585 10.7799V27.4821ZM32.7108 10.2741C32.7098 10.2639 32.7083 10.254 32.7074 10.2432C32.7036 10.2042 32.6985 10.1659 32.694 10.127C32.6881 10.0759 32.6821 10.0247 32.6747 9.97399C32.6691 9.93488 32.6623 9.89669 32.6557 9.85742C32.6474 9.80764 32.639 9.75802 32.6293 9.70885C32.6218 9.67005 32.6133 9.63155 32.605 9.59321C32.5942 9.54451 32.5835 9.49612 32.5715 9.44789C32.5622 9.4097 32.5521 9.37167 32.5418 9.33379C32.5289 9.28633 32.5157 9.23887 32.5018 9.19187C32.4906 9.1543 32.4788 9.11689 32.4668 9.07963C32.4518 9.03294 32.4365 8.98656 32.4208 8.94049C32.408 8.9037 32.3947 8.86721 32.3811 8.83104C32.364 8.78517 32.3461 8.73962 32.3276 8.69437C32.3131 8.65866 32.2985 8.6231 32.2833 8.58785C32.2639 8.54286 32.2436 8.49818 32.2231 8.45381C32.2077 8.41934 32.1912 8.38502 32.1746 8.35085C32.1529 8.30648 32.1302 8.26242 32.1073 8.21867C32.0902 8.18574 32.0731 8.15265 32.0553 8.12019C32.0311 8.07597 32.006 8.03253 31.9805 7.98924C31.9624 7.95832 31.9445 7.92663 31.9258 7.89648C31.8988 7.85211 31.8706 7.80882 31.8424 7.76538C31.8237 7.73662 31.8056 7.70756 31.7863 7.67911C31.7556 7.63397 31.7239 7.58975 31.692 7.54554C31.6736 7.52003 31.656 7.49406 31.6371 7.46824C31.6008 7.41954 31.5631 7.37208 31.5252 7.32462C31.5099 7.30498 31.4945 7.28488 31.4792 7.26556C31.37 7.1325 31.2549 7.00475 31.1336 6.88231C31.1183 6.86685 31.103 6.85262 31.0876 6.83763C31.0416 6.79264 30.9957 6.74765 30.9489 6.70421C30.9265 6.68364 30.9029 6.66401 30.8805 6.64376C30.8394 6.60712 30.7982 6.57032 30.756 6.53554C30.73 6.51374 30.7031 6.49287 30.6766 6.47153C30.6364 6.43907 30.5964 6.4066 30.5553 6.37537C30.5268 6.35357 30.4975 6.3327 30.4687 6.31152C30.4284 6.28215 30.3882 6.25278 30.3473 6.22448C30.3166 6.20346 30.286 6.18321 30.2553 6.16264C30.2147 6.13574 30.1739 6.109 30.1327 6.08318C30.1006 6.06308 30.0681 6.04391 30.0356 6.02459C29.9947 5.99985 29.9531 5.97568 29.9107 5.95208C29.8772 5.93322 29.8434 5.91513 29.8095 5.89704C29.7673 5.87462 29.7248 5.85252 29.6819 5.83118C29.6474 5.81387 29.6125 5.79701 29.5775 5.78047C29.5344 5.75986 29.4909 5.74002 29.4472 5.72095C29.4115 5.70549 29.3758 5.69003 29.3399 5.67457C29.2956 5.65633 29.2512 5.63865 29.2065 5.62154C29.17 5.60748 29.1334 5.59356 29.0966 5.58042C29.0506 5.56403 29.0055 5.54873 28.9597 5.53404C28.9226 5.52183 28.8855 5.50961 28.8481 5.49817C28.8021 5.4838 28.7544 5.47081 28.7073 5.45767C28.6698 5.44731 28.6324 5.4368 28.5945 5.42675C28.5465 5.41453 28.4979 5.40371 28.4494 5.39289C28.4117 5.38454 28.3743 5.37573 28.3363 5.368C28.2863 5.35795 28.2357 5.34945 28.1851 5.34079C28.148 5.3343 28.1112 5.32734 28.0738 5.32177C28.0364 5.31621 28.0022 5.31219 27.9665 5.30755C27.9499 5.27624 27.9307 5.24635 27.9092 5.21819L25.6359 2.28574H28.6681L35.3831 10.9588L32.7108 10.2741Z" fill="#FF8D40"/>
<path d="M24.0599 10.375H13.9001C11.9133 10.375 10.2973 12.0049 10.2973 14.0081V24.2532C10.2973 26.2567 11.9136 27.8863 13.9001 27.8863H24.0599C26.0467 27.8863 27.6628 26.2564 27.6628 24.2532V14.0084C27.6631 12.0049 26.0467 10.375 24.0599 10.375ZM26.388 14.0081V22.2932C24.9392 21.9202 22.527 20.9618 20.672 18.5364C18.6883 15.9429 18.4694 13.1604 18.5295 11.6602H24.0599C25.3436 11.6608 26.3886 12.7139 26.3886 14.0084L26.388 14.0081ZM11.5721 14.0081C11.5721 12.7136 12.6164 11.6605 13.9001 11.6605H17.2541C17.2006 13.1936 17.4136 15.8583 19.0774 18.4814C18.5823 19.811 17.8028 21.0168 16.8104 21.9843C15.0156 23.7335 12.9361 24.3446 11.5918 24.5552C11.5789 24.4552 11.5723 24.3544 11.5721 24.2535V14.0081ZM26.3886 24.2535C26.3886 25.548 25.3442 26.6011 24.0606 26.6011H13.9001C13.5615 26.6011 13.227 26.5264 12.92 26.3823C12.613 26.2382 12.3409 26.0282 12.1229 25.7669C13.6392 25.4814 15.8039 24.7526 17.6963 22.9087C18.6325 21.9965 19.4009 20.898 19.9565 19.6887C22.1359 22.3121 24.8826 23.272 26.388 23.6155L26.3886 24.2535Z" stroke="#FF8D40" stroke-width="0.5"/>
<path d="M36.9598 10.792V8.08896C36.9598 4.18021 33.8062 1.00009 29.93 1.00009H8.02982C4.15363 1.00009 1 4.18021 1 8.08896V10.792C1.00016 11.1826 1.15386 11.5573 1.42742 11.8339C1.70099 12.1106 2.07212 12.2666 2.45953 12.2678C2.58209 12.2676 2.70415 12.2521 2.82288 12.2214L5.2262 11.6061V27.4821C5.2262 30.5248 7.68103 33.0001 10.6984 33.0001H27.2614C30.2788 33.0001 32.7336 30.5248 32.7336 27.4821V11.6064L35.1369 12.2217C35.3951 12.2877 35.6662 12.2815 35.9211 12.2037C36.176 12.126 36.4051 11.9797 36.5837 11.7805C36.664 11.751 36.7375 11.7055 36.7999 11.6466C36.8623 11.5877 36.9121 11.5167 36.9465 11.4378C36.9809 11.3589 36.9991 11.2738 37 11.1877C37.0009 11.1015 36.9844 11.0161 36.9517 10.9365C36.9569 10.8888 36.9598 10.8407 36.9598 10.792ZM35.6847 8.08896V9.25897L30.2956 2.29873C33.299 2.48982 35.6847 5.01304 35.6847 8.08896ZM24.0177 2.28574L26.3219 5.26179H21.0569L18.7535 2.28574H24.0177ZM17.1339 2.28574L19.4382 5.26179H14.2405L11.9364 2.28574H17.1339ZM8.02874 2.28574H10.3247C10.3376 2.30718 10.3517 2.32783 10.3669 2.34758L12.6229 5.26179H10.6984C10.6064 5.26179 10.5152 5.26416 10.4247 5.2689C10.394 5.27029 10.3652 5.27339 10.3353 5.27539C10.2749 5.27941 10.2144 5.28328 10.1546 5.28931C10.119 5.29271 10.0839 5.29781 10.0486 5.30214C9.99497 5.30848 9.94131 5.31466 9.88811 5.3227C9.8507 5.32827 9.81376 5.33538 9.7765 5.34172C9.72606 5.35038 9.67562 5.35888 9.62564 5.36893C9.58762 5.37666 9.55006 5.38547 9.51234 5.39382C9.4639 5.40464 9.41545 5.41546 9.36762 5.42768C9.3296 5.43726 9.29204 5.44793 9.25432 5.4586C9.20741 5.47158 9.16049 5.48457 9.11404 5.49879C9.07648 5.51039 9.03922 5.5226 9.00197 5.53497C8.95598 5.55043 8.90998 5.56589 8.86567 5.58135C8.82857 5.59464 8.79178 5.60856 8.75514 5.62278C8.71068 5.63979 8.66647 5.65736 8.62252 5.6755C8.58614 5.69065 8.55 5.70611 8.51413 5.72188C8.47069 5.74105 8.42761 5.76074 8.38489 5.78094C8.34952 5.79763 8.31431 5.81464 8.27926 5.83195C8.23674 5.85329 8.19463 5.87509 8.15293 5.89735C8.11874 5.91559 8.0844 5.93399 8.05067 5.95301C8.00912 5.9762 7.96803 6.00031 7.92725 6.02459C7.89414 6.04422 7.86117 6.06385 7.82852 6.08411C7.78774 6.10962 7.74772 6.1359 7.70756 6.16233C7.67613 6.18321 7.64439 6.20392 7.61342 6.22526C7.5731 6.25308 7.5337 6.28199 7.49414 6.3109C7.46456 6.33255 7.43451 6.35388 7.40538 6.37615C7.36521 6.40707 7.32611 6.43799 7.28702 6.46999C7.25958 6.4921 7.23168 6.51389 7.20454 6.53662L7.18599 6.55208L4.71015 3.35341C5.67972 2.65815 6.8401 2.28495 8.02982 2.28574H8.02874ZM2.50905 10.9756C2.48132 10.9827 2.45236 10.9833 2.42438 10.9773C2.39639 10.9714 2.37012 10.9591 2.34755 10.9414C2.32498 10.9237 2.30671 10.9011 2.29412 10.8752C2.28154 10.8493 2.27498 10.8208 2.27494 10.792V8.08896C2.27379 6.65518 2.80113 5.27215 3.75456 4.2085L6.30168 7.49885C6.28911 7.51601 6.27731 7.53379 6.26489 7.5511C6.23423 7.59331 6.20356 7.63552 6.17489 7.67849C6.15466 7.70864 6.13534 7.73941 6.11556 7.76986C6.08858 7.8116 6.06144 7.85335 6.03538 7.89586C6.01576 7.92786 5.99721 7.96064 5.9782 7.99326C5.95367 8.03531 5.92929 8.07721 5.90583 8.11988C5.88728 8.15373 5.86965 8.18806 5.85187 8.22222C5.82964 8.26474 5.80771 8.30725 5.78656 8.35039C5.76938 8.38579 5.75298 8.42135 5.73642 8.45706C5.71649 8.50019 5.69687 8.54348 5.67801 8.58723C5.66268 8.62372 5.64735 8.66051 5.63202 8.69746C5.61413 8.74137 5.59681 8.78558 5.58004 8.83011C5.56594 8.86762 5.55224 8.90535 5.53896 8.94328C5.52363 8.98811 5.50829 9.0331 5.49296 9.0784C5.48049 9.11694 5.46843 9.15559 5.45678 9.19435C5.44314 9.24073 5.43026 9.28618 5.41784 9.33225C5.40726 9.37152 5.39684 9.41079 5.38718 9.45021C5.37568 9.49659 5.36525 9.54421 5.35483 9.59136C5.34609 9.63109 5.3375 9.67082 5.32953 9.71086C5.32018 9.75879 5.31205 9.80703 5.30393 9.85526C5.29718 9.89546 5.29028 9.9355 5.28431 9.97585C5.27725 10.0252 5.27143 10.0748 5.2656 10.1244C5.26085 10.1645 5.25564 10.2045 5.2518 10.2449C5.25088 10.2546 5.24935 10.2642 5.24843 10.2741L2.50905 10.9756ZM31.4585 27.4821C31.4585 29.8166 29.5757 31.7144 27.2614 31.7144H10.6984C8.38335 31.7144 6.5013 29.8158 6.5013 27.4821V10.7799C6.5013 8.44546 8.38412 6.5476 10.6984 6.5476H27.2614C29.5764 6.5476 31.4585 8.44624 31.4585 10.7799V27.4821ZM32.7108 10.2741C32.7098 10.2639 32.7083 10.254 32.7074 10.2432C32.7036 10.2042 32.6985 10.1659 32.694 10.127C32.6881 10.0759 32.6821 10.0247 32.6747 9.97399C32.6691 9.93488 32.6623 9.89669 32.6557 9.85742C32.6474 9.80764 32.639 9.75802 32.6293 9.70885C32.6218 9.67005 32.6133 9.63155 32.605 9.59321C32.5942 9.54451 32.5835 9.49612 32.5715 9.44789C32.5622 9.4097 32.5521 9.37167 32.5418 9.33379C32.5289 9.28633 32.5157 9.23887 32.5018 9.19187C32.4906 9.1543 32.4788 9.11689 32.4668 9.07963C32.4518 9.03294 32.4365 8.98656 32.4208 8.94049C32.408 8.9037 32.3947 8.86721 32.3811 8.83104C32.364 8.78517 32.3461 8.73962 32.3276 8.69437C32.3131 8.65866 32.2985 8.6231 32.2833 8.58785C32.2639 8.54286 32.2436 8.49818 32.2231 8.45381C32.2077 8.41934 32.1912 8.38502 32.1746 8.35085C32.1529 8.30648 32.1302 8.26242 32.1073 8.21867C32.0902 8.18574 32.0731 8.15265 32.0553 8.12019C32.0311 8.07597 32.006 8.03253 31.9805 7.98924C31.9624 7.95832 31.9445 7.92663 31.9258 7.89648C31.8988 7.85211 31.8706 7.80882 31.8424 7.76538C31.8237 7.73662 31.8056 7.70756 31.7863 7.67911C31.7556 7.63397 31.7239 7.58975 31.692 7.54554C31.6736 7.52003 31.656 7.49406 31.6371 7.46824C31.6008 7.41954 31.5631 7.37208 31.5252 7.32462C31.5099 7.30498 31.4945 7.28488 31.4792 7.26556C31.37 7.1325 31.2549 7.00475 31.1336 6.88231C31.1183 6.86685 31.103 6.85262 31.0876 6.83763C31.0416 6.79264 30.9957 6.74765 30.9489 6.70421C30.9265 6.68364 30.9029 6.66401 30.8805 6.64376C30.8394 6.60712 30.7982 6.57032 30.756 6.53554C30.73 6.51374 30.7031 6.49287 30.6766 6.47153C30.6364 6.43907 30.5964 6.4066 30.5553 6.37537C30.5268 6.35357 30.4975 6.3327 30.4687 6.31152C30.4284 6.28215 30.3882 6.25278 30.3473 6.22448C30.3166 6.20346 30.286 6.18321 30.2553 6.16264C30.2147 6.13574 30.1739 6.109 30.1327 6.08318C30.1006 6.06308 30.0681 6.04391 30.0356 6.02459C29.9947 5.99985 29.9531 5.97568 29.9107 5.95208C29.8772 5.93322 29.8434 5.91513 29.8095 5.89704C29.7673 5.87462 29.7248 5.85252 29.6819 5.83118C29.6474 5.81387 29.6125 5.79701 29.5775 5.78047C29.5344 5.75986 29.4909 5.74002 29.4472 5.72095C29.4115 5.70549 29.3758 5.69003 29.3399 5.67457C29.2956 5.65633 29.2512 5.63865 29.2065 5.62154C29.17 5.60748 29.1334 5.59356 29.0966 5.58042C29.0506 5.56403 29.0055 5.54873 28.9597 5.53404C28.9226 5.52183 28.8855 5.50961 28.8481 5.49817C28.8021 5.4838 28.7544 5.47081 28.7073 5.45767C28.6698 5.44731 28.6324 5.4368 28.5945 5.42675C28.5465 5.41453 28.4979 5.40371 28.4494 5.39289C28.4117 5.38454 28.3743 5.37573 28.3363 5.368C28.2863 5.35795 28.2357 5.34945 28.1851 5.34079C28.148 5.3343 28.1112 5.32734 28.0738 5.32177C28.0364 5.31621 28.0022 5.31219 27.9665 5.30755C27.9499 5.27624 27.9307 5.24635 27.9092 5.21819L25.6359 2.28574H28.6681L35.3831 10.9588L32.7108 10.2741Z" stroke="#FF8D40" stroke-width="0.5"/>
</svg>
