<svg width="36" height="33" viewBox="0 0 36 33" fill="none" xmlns="http://www.w3.org/2000/svg">
<path d="M15.4023 29.9445C15.4023 30.5488 15.2217 31.1396 14.8832 31.642C14.5447 32.1445 14.0636 32.5362 13.5007 32.7674C12.9378 32.9987 12.3184 33.0592 11.7209 32.9413C11.1233 32.8234 10.5745 32.5324 10.1436 32.1051C9.71284 31.6777 9.41945 31.1333 9.30059 30.5406C9.18173 29.9479 9.24273 29.3335 9.47588 28.7752C9.70904 28.2168 10.1039 27.7396 10.6104 27.4039C11.117 27.0681 11.7126 26.8889 12.3219 26.8889C13.1376 26.8929 13.9188 27.2161 14.4956 27.7883C15.0724 28.3605 15.3983 29.1353 15.4023 29.9445ZM28.3403 26.8889C27.731 26.8889 27.1355 27.0681 26.6289 27.4039C26.1223 27.7396 25.7275 28.2168 25.4943 28.7752C25.2612 29.3335 25.2002 29.9479 25.319 30.5406C25.4379 31.1333 25.7313 31.6777 26.1621 32.1051C26.5929 32.5324 27.1418 32.8234 27.7393 32.9413C28.3369 33.0592 28.9563 32.9987 29.5191 32.7674C30.082 32.5362 30.5631 32.1445 30.9016 31.642C31.2401 31.1396 31.4208 30.5488 31.4208 29.9445C31.4167 29.1353 31.0909 28.3605 30.514 27.7883C29.9372 27.2161 29.156 26.8929 28.3403 26.8889ZM35.9336 8.44864L32.2063 21.3431C31.9465 22.2348 31.4024 23.0191 30.6554 23.5782C29.9084 24.1374 28.9988 24.4413 28.063 24.4445H12.5991C11.6633 24.4413 10.7537 24.1374 10.0068 23.5782C9.25979 23.0191 8.71564 22.2348 8.45588 21.3431L4.74392 8.4792C4.74392 8.46392 4.72852 8.43336 4.72852 8.41809L3.35771 3.6667H1.84828C1.35809 3.6667 0.887968 3.47354 0.541349 3.12973C0.194729 2.78591 0 2.31959 0 1.83336C0 1.34713 0.194729 0.880818 0.541349 0.537001C0.887968 0.193185 1.35809 3.05176e-05 1.84828 3.05176e-05H3.81978C4.48905 0.00506573 5.13904 0.222993 5.67414 0.621762C6.20924 1.02053 6.60122 1.57909 6.79243 2.21531L7.9014 6.11114H34.147C34.4329 6.11276 34.7145 6.1796 34.9702 6.30648C35.2259 6.43337 35.4487 6.61689 35.6214 6.84287C35.7941 7.06884 35.9121 7.3312 35.9663 7.60965C36.0204 7.88809 36.0093 8.17516 35.9336 8.44864ZM31.698 9.77781H8.96416L11.9984 20.3348C12.0378 20.4625 12.1174 20.5744 12.2254 20.6541C12.3335 20.7338 12.4644 20.7771 12.5991 20.7778H28.063C28.1977 20.7771 28.3286 20.7338 28.4367 20.6541C28.5448 20.5744 28.6243 20.4625 28.6637 20.3348L31.698 9.77781Z" fill="#444748"/>
</svg>
